<?xml version="1.0" standalone="no"?>
<!DOCTYPE svg PUBLIC "-//W3C//DTD SVG 20010904//EN"
 "http://www.w3.org/TR/2001/REC-SVG-20010904/DTD/svg10.dtd">
<svg version="1.0" xmlns="http://www.w3.org/2000/svg"
 width="2827.000000pt" height="2827.000000pt" viewBox="0 0 2827.000000 2827.000000"
 preserveAspectRatio="xMidYMid meet">

<g transform="translate(0.000000,2827.000000) scale(0.100000,-0.100000)"
fill="#000000" stroke="none">
<path d="M13700 23828 c-214 -8 -556 -34 -767 -58 -211 -24 -706 -117 -853
-160 -49 -14 -388 -110 -425 -120 -413 -113 -657 -191 -865 -277 -195 -80
-203 -83 -225 -93 -30 -14 -346 -141 -380 -153 -54 -20 -353 -174 -685 -354
-86 -47 -185 -114 -235 -159 -69 -62 -97 -87 -199 -174 -55 -47 -140 -121
-190 -164 -50 -44 -341 -330 -646 -636 -305 -306 -595 -590 -645 -631 -49 -41
-92 -77 -95 -80 -26 -32 -441 -289 -466 -289 -3 0 -22 -11 -44 -25 -78 -49
-450 -253 -660 -362 -85 -44 -191 -101 -235 -125 -44 -25 -102 -58 -130 -73
-183 -101 -429 -260 -610 -395 -27 -20 -129 -96 -226 -168 -253 -187 -399
-329 -607 -587 -53 -66 -104 -129 -114 -140 -52 -63 -86 -107 -114 -146 -74
-105 -164 -230 -174 -242 -190 -231 -512 -784 -682 -1172 -65 -147 -138 -327
-138 -338 0 -3 -16 -41 -36 -84 -66 -142 -177 -499 -215 -688 -15 -80 -47
-266 -53 -320 -8 -65 -24 -170 -41 -270 -34 -206 -53 -365 -77 -650 -17 -201
-16 -899 0 -1075 25 -263 64 -491 152 -900 11 -52 30 -140 41 -195 66 -317
145 -542 300 -855 37 -75 76 -156 87 -180 11 -25 52 -117 92 -205 88 -196 213
-447 242 -486 12 -15 27 -30 35 -33 8 -3 89 -1 182 4 175 10 310 32 323 53 4
7 8 28 8 47 1 58 10 65 62 46 25 -10 58 -29 74 -43 25 -22 35 -24 78 -19 26 3
64 14 83 26 21 12 43 18 58 14 13 -3 34 0 48 8 l26 13 -18 45 c-10 25 -35 90
-56 145 -21 55 -59 145 -85 200 -52 112 -75 174 -66 182 3 4 6 1 6 -6 0 -6 4
-17 10 -24 32 -40 359 -488 369 -505 7 -13 19 -14 74 -4 74 12 131 46 123 74
-4 19 0 18 46 -14 35 -24 83 -23 121 4 26 19 44 22 133 22 83 1 107 4 120 18
16 16 15 20 -24 71 -50 66 -162 226 -162 231 0 2 -17 33 -38 67 -21 35 -57 98
-79 139 -71 132 -105 193 -151 275 -134 236 -309 628 -367 820 -15 50 -34 110
-42 135 -62 190 -117 436 -159 710 -8 52 -21 136 -29 185 -39 237 -45 311 -45
585 0 375 30 812 71 1045 44 254 109 499 163 619 8 17 29 65 47 106 37 88 301
608 367 725 140 249 279 423 702 880 414 446 577 592 1007 898 141 101 207
141 473 287 331 182 560 294 657 322 36 10 58 2 106 -38 31 -26 45 -24 98 17
20 16 72 47 115 70 142 74 238 132 294 176 90 72 413 397 556 560 74 84 159
176 190 205 31 29 60 58 65 63 5 6 59 69 120 140 161 188 228 250 383 354 44
29 104 72 134 95 159 121 495 344 732 484 41 25 183 100 315 167 132 67 276
141 320 163 147 75 592 239 829 306 497 141 854 218 1191 256 271 31 964 26
1365 -9 229 -21 638 -78 825 -116 39 -8 131 -26 205 -40 210 -40 534 -129 710
-195 30 -12 98 -37 150 -56 279 -103 743 -322 950 -449 52 -32 104 -63 115
-69 97 -55 520 -355 625 -443 88 -75 202 -187 555 -549 165 -169 341 -343 390
-387 50 -44 104 -93 122 -108 17 -16 85 -70 150 -121 65 -50 156 -124 203
-163 117 -99 323 -239 480 -327 25 -14 71 -40 103 -58 67 -37 78 -34 109 38
22 49 33 51 123 23 130 -40 504 -209 546 -247 8 -8 19 -14 23 -14 4 0 42 -24
84 -54 43 -29 170 -117 284 -194 339 -231 475 -339 737 -587 197 -185 449
-453 592 -629 96 -118 267 -368 345 -504 71 -123 203 -393 269 -547 7 -16 26
-61 42 -100 66 -152 145 -384 197 -570 54 -199 99 -445 142 -780 28 -215 25
-881 -5 -1125 -45 -372 -42 -360 -166 -877 -39 -166 -97 -351 -152 -483 -38
-93 -159 -339 -196 -398 -13 -20 -52 -89 -87 -152 -75 -137 -154 -268 -224
-369 -28 -41 -58 -84 -66 -97 -8 -12 -41 -61 -74 -108 -32 -48 -56 -92 -53
-100 6 -14 92 -46 125 -46 10 0 26 8 35 18 29 32 127 173 127 183 0 5 5 9 10
9 6 0 10 5 10 11 0 6 17 32 38 58 21 25 42 54 45 64 4 9 12 17 20 17 9 0 12 9
9 30 -4 31 6 38 26 18 8 -8 12 -9 12 -1 0 6 -6 13 -12 16 -9 3 -6 13 10 33 12
16 27 40 32 53 8 19 13 22 23 12 9 -9 9 -16 -1 -31 -6 -11 -12 -28 -12 -37 0
-10 -12 -29 -26 -42 -14 -13 -28 -37 -31 -53 -3 -15 -9 -28 -13 -28 -4 0 -13
-15 -20 -32 -18 -48 -66 -146 -99 -203 -60 -102 -63 -108 -48 -122 7 -7 39
-21 70 -30 l57 -16 25 27 c14 15 25 30 25 33 0 3 11 21 25 39 14 18 25 40 25
48 0 19 11 21 28 4 10 -10 11 -6 7 17 -4 21 1 38 15 55 19 25 20 25 20 3 0
-12 -4 -25 -10 -28 -19 -12 -10 -25 16 -25 21 0 25 4 21 20 -4 15 0 20 13 20
16 0 18 -6 13 -37 l-6 -37 31 23 c18 12 32 28 32 36 0 7 7 15 15 19 34 13 18
-26 -60 -144 -96 -146 -96 -155 6 -182 113 -30 104 -36 218 126 56 80 108 149
115 155 28 24 26 -21 -5 -84 -16 -34 -31 -83 -33 -108 -1 -31 -10 -54 -29 -77
-49 -57 -39 -67 113 -111 164 -47 369 -88 495 -99 66 -6 147 -14 181 -17 60
-5 61 -5 90 30 69 84 201 388 340 787 30 85 59 165 65 178 9 24 100 269 146
397 13 39 31 86 38 105 36 96 101 386 145 640 99 581 115 766 114 1360 0 541
-11 692 -84 1205 -53 364 -92 561 -151 762 -17 59 -35 122 -39 138 -4 17 -12
39 -17 50 -6 11 -24 61 -41 110 -58 171 -268 627 -408 885 -249 457 -455 796
-568 935 -271 333 -351 422 -579 647 -201 199 -370 340 -667 555 -300 217
-500 338 -800 485 -212 104 -283 142 -510 270 -157 89 -430 254 -532 322 -135
90 -264 197 -423 354 -82 81 -188 181 -235 222 -92 82 -375 363 -730 725 -124
127 -268 264 -320 306 -145 116 -613 440 -725 502 -256 141 -628 331 -752 384
-88 38 -336 135 -378 149 -22 7 -85 29 -140 48 -120 44 -529 164 -675 200 -58
13 -242 59 -410 100 -333 83 -483 110 -840 156 -47 6 -134 18 -195 26 -314 42
-902 54 -1495 32z m1205 -168 c50 -5 135 -14 190 -20 257 -27 394 -60 464
-111 87 -62 147 -229 139 -384 -9 -162 -90 -355 -165 -390 -39 -19 -89 -19
-217 0 -55 8 -132 20 -171 25 -38 6 -124 20 -190 31 -418 69 -605 78 -1250 55
-558 -20 -864 -40 -1019 -67 -52 -9 -62 -8 -84 8 -39 29 -53 85 -59 236 -5
113 -3 150 12 205 35 133 135 291 207 328 81 42 114 46 483 54 198 5 448 14
555 20 107 7 256 16 330 20 168 10 654 4 775 -10z m1478 -226 c53 -18 75 -45
52 -64 -9 -8 -37 -10 -81 -7 -55 4 -71 10 -91 31 -13 14 -33 26 -44 26 -40 0
-103 -90 -124 -175 -32 -134 -45 -345 -22 -345 7 0 38 32 70 70 65 80 83 85
154 48 62 -33 90 -20 128 59 38 79 64 105 150 156 l70 42 105 -1 c123 -1 181
-17 400 -116 25 -12 70 -32 100 -45 30 -13 64 -28 75 -33 11 -5 83 -35 160
-66 155 -61 196 -83 289 -153 42 -31 99 -60 167 -85 57 -21 163 -60 236 -87
72 -27 148 -49 169 -49 56 0 150 -29 179 -56 28 -26 31 -50 27 -229 -4 -163
-31 -270 -113 -435 -31 -63 -60 -126 -64 -140 -10 -32 -24 -50 -40 -50 -15 0
-149 88 -230 152 -33 25 -55 51 -55 62 0 11 39 71 87 134 48 64 113 166 145
229 62 119 73 132 91 114 21 -21 76 -13 102 15 50 54 42 89 -28 123 -53 25
-80 26 -118 4 -28 -17 -30 -17 -121 30 -143 72 -181 81 -282 68 -46 -6 -119
-20 -163 -31 -43 -10 -110 -24 -149 -30 -72 -11 -166 -57 -187 -92 -18 -28 8
-58 129 -147 184 -135 328 -281 302 -306 -2 -3 -24 7 -49 20 -68 38 -174 89
-283 136 -126 54 -156 79 -155 127 1 41 -32 144 -47 149 -17 6 -105 -88 -111
-119 -6 -32 -19 -34 -78 -14 -65 23 -57 40 68 145 127 105 184 142 272 171
104 34 151 37 201 9 34 -18 46 -21 56 -11 14 14 -16 84 -63 144 -47 58 -165
109 -184 78 -4 -6 -23 -19 -44 -30 -64 -32 -338 -313 -401 -410 -17 -26 -33
-39 -48 -40 -30 0 -152 60 -152 76 0 6 22 45 49 85 26 41 77 117 111 169 104
156 159 212 187 188 18 -14 16 -33 -3 -49 -37 -31 -237 -309 -254 -353 -6 -17
-4 -28 7 -39 25 -25 59 -1 154 105 129 147 250 261 302 286 51 25 60 46 25 58
-12 3 -92 40 -177 81 -86 41 -181 86 -211 100 -30 13 -68 31 -85 38 -143 65
-221 59 -349 -29 -142 -97 -143 -98 -152 -309 -8 -188 -15 -212 -57 -184 -24
16 -25 17 -19 127 6 129 -2 145 -77 156 -57 10 -76 7 -122 -17 -64 -32 -99
-70 -140 -150 -28 -58 -44 -79 -58 -79 -29 0 -34 29 -26 158 16 272 78 514
148 580 48 45 77 54 162 48 45 -3 102 -13 128 -22z m-4366 -41 c124 -62 175
-173 167 -363 -2 -64 1 -114 12 -155 28 -109 44 -197 39 -205 -10 -16 -36 2
-56 39 -26 49 -41 71 -61 93 -22 22 -23 37 -2 45 27 10 -5 23 -58 23 -55 0
-68 -15 -68 -79 0 -48 -8 -71 -25 -71 -9 0 -14 26 -17 88 -5 110 -37 187 -78
187 -19 0 -30 -9 -45 -40 -17 -33 -20 -60 -20 -157 0 -80 4 -121 13 -129 17
-18 15 -39 -3 -39 -36 0 -78 182 -63 277 5 32 23 86 40 121 28 53 36 62 59 62
22 0 38 -13 73 -55 25 -30 48 -64 51 -75 4 -11 9 -20 13 -21 69 -7 123 -5 132
5 19 24 -24 207 -70 303 -52 105 -124 148 -204 121 -57 -19 -65 -38 -38 -93
12 -25 22 -48 22 -50 0 -15 -39 0 -80 30 -27 20 -62 40 -79 46 -60 21 -38 47
70 85 145 51 189 52 276 7z m-401 -89 c-3 -9 -6 -22 -6 -30 0 -8 -11 -20 -25
-26 -14 -6 -25 -19 -25 -27 0 -9 21 -52 47 -95 55 -93 62 -123 63 -286 1 -120
9 -196 25 -232 5 -13 -2 -22 -27 -38 -54 -33 -60 -27 -128 110 -32 64 -105
288 -97 296 14 14 47 -21 67 -73 13 -32 29 -71 36 -88 14 -32 31 -94 43 -160
11 -60 24 -19 17 52 -3 32 -10 119 -15 194 -5 75 -15 147 -21 160 -28 55 -94
77 -131 43 -9 -8 -39 -17 -65 -19 -83 -7 -148 -17 -166 -26 -9 -5 -63 -20
-120 -35 -98 -24 -325 -97 -359 -115 -28 -14 -48 -55 -58 -120 -9 -52 -8 -67
4 -86 13 -19 19 -21 41 -13 45 18 97 10 176 -24 94 -41 368 -220 368 -241 0
-35 -80 -47 -114 -17 -12 10 -73 50 -136 89 -203 125 -258 146 -314 119 -28
-13 -43 -14 -81 -6 -51 11 -105 36 -105 48 0 4 5 27 11 51 11 48 5 81 -15 81
-15 0 -154 -63 -306 -138 -118 -58 -250 -140 -250 -156 -1 -6 -2 -36 -4 -65
-7 -107 66 -281 187 -449 80 -111 100 -147 93 -170 -3 -9 -36 -37 -73 -62 -38
-24 -79 -57 -92 -73 -13 -16 -69 -58 -125 -94 -55 -36 -112 -73 -126 -82 -14
-10 -70 -44 -125 -76 -180 -105 -326 -229 -682 -580 -72 -71 -150 -146 -173
-165 -23 -19 -50 -51 -61 -71 -10 -21 -22 -39 -27 -41 -5 -1 -26 -30 -46 -63
-21 -33 -64 -85 -95 -115 -32 -30 -76 -80 -98 -110 -42 -56 -138 -149 -277
-265 -75 -63 -79 -65 -97 -49 -26 24 -24 41 9 58 39 20 63 49 65 81 2 23 -7
35 -41 61 -42 33 -51 52 -22 46 133 -24 173 -19 222 25 43 39 -6 78 -89 71
-32 -2 -38 0 -38 17 0 18 6 20 55 19 30 -1 76 -5 101 -9 46 -7 47 -7 54 23 8
38 43 62 90 62 51 0 48 31 -7 60 -23 12 -51 32 -61 43 -10 12 -32 37 -48 54
-16 18 -29 35 -29 38 0 6 83 -45 90 -56 11 -17 110 -59 138 -59 39 0 57 21 42
49 -6 12 -16 21 -22 21 -6 0 -37 18 -69 40 -32 22 -64 40 -69 40 -47 0 -120
96 -120 157 0 17 -11 47 -25 67 -30 45 -32 81 -5 96 11 6 20 7 21 3 0 -4 1
-25 2 -47 1 -23 8 -42 17 -46 74 -37 172 -80 205 -90 40 -12 96 -35 125 -49
23 -12 25 -41 3 -41 -11 0 -23 4 -28 8 -6 5 -32 17 -60 26 -27 10 -87 36 -132
58 -45 22 -86 37 -92 33 -47 -28 45 -137 154 -180 39 -16 85 -39 103 -52 38
-29 54 -22 77 34 8 18 19 33 24 33 7 0 11 30 11 78 0 89 -7 100 -75 127 -22 9
-49 20 -60 25 -11 4 -33 12 -50 16 l-30 8 29 4 c16 2 39 -1 50 -6 12 -6 43
-13 70 -15 28 -3 61 -14 78 -27 37 -27 54 -21 73 27 10 26 31 49 63 70 66 43
222 173 317 264 72 69 103 111 118 160 3 10 26 22 59 29 29 7 83 28 119 46 65
32 176 64 225 64 l24 0 0 123 c0 70 -7 154 -15 197 -23 113 -44 287 -61 521
l-6 86 32 36 c17 20 61 55 98 78 99 63 352 184 445 213 153 49 252 89 317 131
110 70 118 74 172 96 112 46 309 113 497 169 40 12 99 36 130 54 78 43 100 54
146 70 55 20 79 20 71 0z m5191 -236 c-5 -35 -93 -244 -152 -363 -19 -38 -35
-75 -35 -82 0 -6 12 -25 26 -42 29 -35 23 -38 -29 -16 -43 18 -50 36 -33 83
64 173 78 210 86 227 5 11 23 54 39 95 48 124 52 130 79 130 22 0 24 -3 19
-32z m211 -60 c18 -18 15 -49 -10 -88 -72 -119 -192 -351 -202 -392 -7 -32
-24 -35 -66 -13 -27 14 -42 45 -22 45 7 0 19 20 92 155 68 125 153 271 168
288 18 20 24 21 40 5z m-5742 -66 c30 -19 145 -235 203 -380 17 -40 7 -54 -57
-82 -72 -32 -80 -29 -163 68 -87 101 -229 298 -229 317 0 38 116 -78 230 -230
85 -115 96 -125 126 -125 24 0 29 11 25 58 -2 20 -105 229 -156 318 -25 42
-11 78 21 56z m5271 -134 c-2 -18 -4 -4 -4 32 0 36 2 50 4 33 2 -18 2 -48 0
-65z m-304 -14 l-6 -73 32 -18 c17 -10 31 -21 31 -24 0 -11 -49 -20 -75 -13
-36 9 -45 32 -45 111 0 82 19 120 50 101 16 -10 17 -21 13 -84z m-1666 -336
c-3 -8 -6 -5 -6 6 -1 11 2 17 5 13 3 -3 4 -12 1 -19z m-5144 -56 c56 -53 100
-151 126 -284 6 -32 16 -83 22 -114 7 -35 7 -60 2 -65 -17 -17 -33 15 -58 116
-30 116 -96 273 -127 300 -14 11 -39 19 -68 19 -37 1 -45 4 -45 20 0 11 14 26
34 37 39 21 70 13 114 -29z m1523 -9 c6 -13 18 -31 27 -41 24 -26 21 -38 -15
-65 -62 -45 -425 -220 -439 -211 -19 11 -7 44 24 65 17 13 93 73 167 134 74
61 146 118 160 128 32 22 61 18 76 -10z m7921 -65 c-5 -49 -126 -361 -151
-389 -22 -26 -39 -24 -31 4 9 29 104 284 121 322 7 17 20 47 28 68 21 51 39
49 33 -5z m-2627 22 c0 -5 -2 -10 -4 -10 -3 0 -8 5 -11 10 -3 6 -1 10 4 10 6
0 11 -4 11 -10z m2910 -278 c0 -22 -253 -142 -300 -142 -63 0 23 56 210 138
29 13 90 15 90 4z m-10067 -42 c160 -77 285 -166 263 -187 -2 -3 -35 12 -73
33 -75 41 -132 72 -208 112 -61 32 -86 52 -79 63 9 15 33 10 97 -21z m73 -240
c205 -52 290 -83 279 -100 -12 -20 -133 -10 -276 24 -187 44 -196 45 -215 31
-14 -10 -14 -15 -5 -34 30 -55 30 -436 1 -551 -5 -19 -12 -61 -15 -93 -5 -47
-10 -58 -23 -55 -25 5 -27 86 -6 216 28 180 28 171 10 178 -10 4 -32 -5 -56
-21 -26 -18 -45 -25 -59 -20 -26 8 -61 52 -61 77 0 19 1 19 25 4 46 -30 91
-18 119 31 4 8 -9 22 -33 39 -49 32 -45 44 9 37 l40 -6 0 39 c0 46 -30 100
-65 116 -50 22 -25 64 69 116 22 12 46 22 53 22 7 0 101 -22 209 -50z m10215
-6 c46 -23 99 -53 117 -69 37 -31 92 -120 92 -148 0 -10 7 -31 15 -47 l15 -28
36 19 c36 18 37 18 73 -1 68 -34 153 -128 201 -223 58 -115 84 -143 147 -166
73 -26 105 -52 136 -109 25 -45 129 -338 163 -457 22 -78 43 -100 94 -100 41
0 44 2 52 33 5 17 10 32 12 32 16 0 36 -15 36 -26 0 -44 136 -34 167 12 31 49
47 33 126 -128 85 -172 164 -286 200 -288 11 0 181 -128 232 -173 11 -10 36
-28 55 -39 19 -12 37 -23 39 -24 2 -2 -2 -10 -8 -18 -16 -19 -59 -7 -109 31
-64 47 -222 187 -222 195 0 4 -15 8 -33 8 -52 0 -118 80 -192 232 -42 85 -67
118 -93 119 -127 5 -229 -2 -277 -20 -42 -16 -56 -17 -69 -8 -26 20 -149 354
-187 512 -19 79 -37 113 -79 155 -35 35 -45 39 -97 42 l-58 3 -60 122 c-67
137 -81 156 -95 133 -5 -8 -10 -28 -10 -43 0 -15 -7 -41 -15 -57 -14 -28 -93
-94 -142 -119 -38 -20 -36 6 5 51 21 24 46 54 55 68 19 27 23 110 7 140 -10
18 -73 60 -91 60 -19 0 -139 -134 -139 -156 0 -13 -5 -26 -10 -29 -8 -5 -7
-11 1 -21 9 -11 8 -39 -6 -122 -23 -150 -29 -166 -70 -185 -32 -15 -42 -35
-36 -71 1 -4 -1 -16 -4 -27 -5 -15 -13 -10 -49 34 -57 70 -77 102 -70 110 4 3
22 -9 41 -28 19 -19 39 -35 43 -35 19 0 19 39 0 105 -55 191 -62 239 -57 393
5 168 13 202 62 255 19 21 35 42 35 47 0 28 -110 41 -153 18 -46 -24 -330 -79
-425 -81 -18 -1 -40 6 -49 16 -16 16 -16 17 11 17 16 0 43 9 60 19 30 19 54
26 266 77 58 14 107 28 110 31 3 3 30 3 61 1 39 -3 82 -16 140 -44z m-764 -40
c-3 -3 -12 -4 -19 -1 -8 3 -5 6 6 6 11 1 17 -2 13 -5z m-630 -80 c-3 -3 -12
-4 -19 -1 -8 3 -5 6 6 6 11 1 17 -2 13 -5z m593 -72 c115 -73 208 -167 196
-198 -5 -12 -20 -4 -67 38 -33 29 -95 79 -137 111 -97 74 -106 83 -98 96 8 13
20 7 106 -47z m-530 8 c0 -5 -4 -10 -10 -10 -5 0 -10 5 -10 10 0 6 5 10 10 10
6 0 10 -4 10 -10z m-9293 -22 c22 -18 14 -38 -18 -45 -47 -9 -100 -89 -120
-184 -9 -39 -8 -66 1 -111 7 -32 10 -61 7 -64 -13 -13 -39 29 -55 88 -20 74
-37 82 -87 44 -18 -14 -37 -26 -42 -26 -4 0 -26 -15 -48 -34 l-39 -33 24 -13
c14 -7 41 -26 60 -41 19 -15 78 -41 129 -58 85 -28 110 -42 111 -62 0 -16 -33
-17 -68 -2 -116 50 -154 63 -184 63 -20 0 -37 8 -50 25 -23 29 -58 32 -80 8
-40 -46 -218 -400 -218 -433 0 -17 -82 -254 -104 -300 -17 -36 -27 -46 -51
-48 -55 -7 -203 29 -328 79 -106 43 -113 39 -144 -82 -13 -51 -40 -128 -59
-170 -31 -67 -48 -87 -123 -153 -48 -42 -117 -99 -152 -127 -35 -28 -72 -60
-82 -71 -11 -10 -29 -18 -40 -16 -47 7 -24 44 108 180 211 216 240 264 275
461 7 37 19 75 27 83 27 27 110 16 208 -27 111 -49 253 -91 278 -83 15 5 77
121 77 146 0 5 -28 34 -61 66 -51 48 -60 62 -55 80 12 37 43 26 82 -28 20 -27
42 -50 49 -50 7 0 26 44 45 103 56 173 122 321 194 435 21 34 111 102 135 102
4 0 45 23 91 50 46 28 87 50 91 50 5 0 12 12 15 28 10 38 81 148 112 173 27
21 62 20 89 -3z m9768 -238 c3 -5 1 -10 -4 -10 -6 0 -11 5 -11 10 0 6 2 10 4
10 3 0 8 -4 11 -10z m480 -85 c17 -12 62 -35 100 -50 39 -16 73 -31 77 -35 4
-3 5 -29 1 -58 -7 -65 -22 -67 -83 -9 -25 24 -70 62 -100 84 -73 54 -102 82
-95 93 9 14 66 -1 100 -25z m-9970 15 c3 -5 1 -10 -4 -10 -6 0 -11 5 -11 10 0
6 2 10 4 10 3 0 8 -4 11 -10z m1025 -104 c0 -2 -7 -7 -16 -10 -8 -3 -12 -2 -9
4 6 10 25 14 25 6z m9899 -95 c6 -10 32 -33 59 -50 62 -39 81 -71 62 -106 -24
-44 -67 -79 -150 -122 -79 -42 -118 -54 -105 -33 3 6 15 10 26 10 10 0 19 4
19 10 0 5 11 12 25 16 14 3 25 10 25 14 0 5 8 11 18 14 9 3 31 18 47 32 17 14
38 32 48 39 31 22 12 46 -85 109 -82 54 -89 61 -72 73 26 19 72 16 83 -6z
m-10252 -27 c-3 -3 -12 -4 -19 -1 -8 3 -5 6 6 6 11 1 17 -2 13 -5z m10223 -84
c0 -15 -69 -55 -130 -75 -30 -10 -78 -29 -107 -43 -57 -27 -86 -24 -81 10 2
17 21 27 93 53 50 18 101 37 115 42 49 20 55 21 83 22 15 1 27 -3 27 -9z
m-355 -150 c-8 -16 -15 -54 -15 -86 0 -51 3 -60 37 -98 31 -34 34 -41 19 -44
-19 -4 -74 29 -119 72 -28 26 -28 26 -10 54 11 15 25 41 32 57 20 48 40 75 56
75 14 0 14 -3 0 -30z m235 -69 c0 -11 -86 -44 -102 -39 -14 5 60 46 85 47 9 1
17 -3 17 -8z m-12015 -76 c0 -39 4 -91 9 -117 6 -38 5 -48 -5 -48 -30 1 -69
85 -69 147 0 45 26 95 48 91 14 -3 17 -16 17 -73z m528 8 c26 -14 29 -18 13
-21 -10 -2 -28 5 -39 17 -26 25 -17 27 26 4z m12185 5 c7 -7 12 -27 12 -44 0
-24 -5 -34 -21 -39 -33 -11 -42 7 -29 54 11 43 18 49 38 29z m162 -59 c0 -11
-4 -17 -10 -14 -5 3 -10 13 -10 21 0 8 5 14 10 14 6 0 10 -9 10 -21z m-856
-55 c25 -10 19 -32 -11 -38 -65 -13 -122 -10 -143 9 -11 10 -20 22 -20 27 0 9
150 11 174 2z m27 -176 c52 -27 279 -256 279 -280 0 -52 -90 20 -270 218 -84
91 -85 101 -9 62z m325 1 c9 -16 5 -128 -5 -147 -7 -12 -12 -7 -20 24 -6 21
-11 46 -11 54 0 9 -7 26 -16 39 -14 19 -14 25 -3 32 20 12 47 11 55 -2z
m-11233 -6 c-7 -2 -19 -2 -25 0 -7 3 -2 5 12 5 14 0 19 -2 13 -5z m-58 -84
c-7 -24 -14 -39 -15 -34 -6 42 -5 73 4 87 19 31 26 -5 11 -53z m-35 1 c0 -5
-4 -10 -10 -10 -5 0 -10 5 -10 10 0 6 5 10 10 10 6 0 10 -4 10 -10z m20 -99
c0 -6 -5 -13 -10 -16 -8 -5 -7 -11 1 -21 9 -11 7 -14 -15 -14 -16 0 -26 5 -26
15 0 8 7 15 15 15 8 0 15 7 15 15 0 8 5 15 10 15 6 0 10 -4 10 -9z m11747 -17
c4 -11 -172 -94 -200 -94 -8 0 -37 -11 -65 -25 -54 -26 -82 -31 -82 -16 0 14
38 35 150 80 58 24 119 49 135 57 33 15 56 15 62 -2z m742 -113 c28 -52 51
-100 51 -108 0 -25 -35 7 -78 71 -54 81 -76 130 -68 152 6 17 8 17 26 -2 10
-10 41 -61 69 -113z m-14393 104 c4 -8 -10 -40 -31 -70 -77 -117 -143 -295
-195 -525 -15 -69 -32 -136 -38 -150 -13 -32 -49 -70 -67 -70 -16 0 -45 27
-45 42 0 6 -9 3 -20 -7 -14 -13 -20 -31 -20 -60 0 -42 -13 -65 -37 -65 -16 0
-17 39 -2 77 6 15 15 66 19 112 13 123 40 140 48 31 2 -33 7 -60 11 -60 18 0
55 36 67 66 21 50 9 79 -45 114 -59 37 -73 37 -111 3 -22 -21 -33 -42 -40 -83
-13 -67 -23 -79 -44 -49 -27 39 -21 104 16 155 27 38 30 47 20 68 -21 48 -116
55 -151 12 -7 -9 -19 -16 -26 -16 -28 0 -37 -27 -22 -62 9 -18 32 -86 52 -151
22 -72 45 -125 58 -138 15 -14 21 -29 18 -50 -2 -21 4 -38 19 -54 18 -19 20
-27 11 -44 -10 -18 -40 -41 -55 -41 -2 0 -7 15 -11 33 -9 40 -42 140 -62 187
-8 19 -21 50 -29 68 -8 18 -14 40 -14 50 0 25 -39 124 -57 145 -25 27 -103 23
-137 -8 -40 -37 -34 -66 23 -114 50 -43 62 -67 112 -234 11 -38 30 -84 41
-102 18 -32 18 -55 -2 -55 -16 0 -108 100 -98 106 18 11 -1 84 -36 139 -41 63
-115 128 -157 136 -40 9 -100 -6 -117 -28 -17 -23 -11 -75 17 -137 28 -60 25
-81 -13 -81 -30 0 -34 -4 -62 -75 -10 -25 -33 -67 -52 -94 -42 -60 -92 -170
-83 -182 3 -6 30 -27 60 -49 57 -41 81 -82 81 -138 0 -33 -56 -136 -122 -221
-31 -40 -227 -276 -238 -286 -3 -3 -43 -52 -89 -110 -152 -189 -242 -289 -256
-284 -8 3 -16 -4 -20 -16 -4 -12 -28 -45 -53 -74 -26 -29 -76 -87 -112 -130
-36 -43 -76 -90 -88 -104 l-24 -27 7 69 c8 79 13 96 28 96 5 0 33 21 62 48 28
26 60 54 71 63 10 9 31 29 46 45 15 16 50 52 78 79 28 28 54 64 59 82 5 18 19
46 30 62 12 16 21 32 21 35 0 4 19 30 43 60 23 29 62 79 87 112 59 77 185 219
284 321 94 97 116 129 116 165 0 33 -52 68 -101 68 -44 0 -63 14 -174 120 -99
94 -142 119 -183 104 -14 -5 -75 -65 -135 -133 l-109 -123 7 -42 c4 -22 11
-68 15 -101 5 -33 13 -96 20 -140 6 -44 22 -151 37 -237 30 -188 25 -221 -27
-165 -41 43 -67 116 -80 222 -4 39 -18 130 -29 204 -12 74 -22 174 -22 222 -2
79 1 92 26 136 36 62 216 241 278 277 56 33 59 32 185 -23 51 -23 106 -41 123
-41 81 0 156 113 174 260 16 140 26 169 72 220 25 28 51 50 58 50 7 0 18 7 25
15 7 8 25 15 41 15 19 0 29 -5 29 -15 0 -8 5 -15 11 -15 8 0 10 12 6 35 -4 24
0 41 13 57 24 32 112 74 191 92 35 8 100 23 144 33 44 10 106 17 138 17 50 -1
62 3 86 25 33 30 114 81 130 81 6 0 11 -5 11 -12 0 -16 -91 -108 -106 -108
-18 0 -27 -36 -14 -59 6 -11 20 -26 31 -32 11 -6 39 -27 61 -47 42 -38 52 -36
64 18 13 57 89 261 127 339 55 117 135 193 153 146z m14689 -47 c6 -5 12 -96
16 -209 6 -215 11 -235 54 -203 11 8 27 17 35 21 8 3 29 17 47 30 49 36 194
103 222 103 40 0 118 -41 207 -108 100 -75 154 -134 154 -166 0 -32 29 -65
111 -123 203 -147 268 -201 280 -231 10 -26 -4 -62 -24 -62 -41 1 -195 101
-240 157 -21 26 -39 28 -86 12 -36 -13 -53 -38 -60 -94 -5 -29 -11 -41 -26
-43 -28 -5 -64 -41 -80 -78 -7 -16 -24 -43 -38 -58 -16 -17 -24 -34 -19 -41 4
-7 57 -52 117 -99 61 -48 121 -97 135 -109 14 -13 42 -34 64 -47 l39 -23 16
20 c9 12 27 24 41 28 39 11 239 223 245 260 3 16 -2 59 -10 95 -26 108 -28
120 -17 120 15 0 57 -57 76 -102 17 -43 44 -50 64 -18 12 19 14 20 45 4 133
-69 300 -215 337 -296 30 -65 22 -169 -12 -168 -7 1 -40 39 -73 86 -70 100
-235 274 -259 274 -27 0 -115 -71 -211 -171 -50 -52 -112 -113 -138 -135 -29
-26 -47 -50 -47 -64 0 -28 -24 -21 -28 8 -2 14 -13 24 -30 28 -29 7 -101 57
-192 134 -30 25 -71 57 -90 72 -19 14 -48 37 -63 52 -15 14 -41 33 -58 41 -16
9 -29 19 -29 24 0 4 -12 14 -26 21 -54 30 -75 138 -33 176 11 10 30 39 41 63
26 57 117 191 140 205 30 18 24 87 -10 119 -15 15 -37 27 -49 27 -11 0 -47 18
-79 40 -69 47 -97 50 -128 13 -22 -25 -24 -26 -47 -10 -15 11 -43 17 -81 17
-70 0 -76 -17 -24 -68 39 -38 48 -73 40 -148 -7 -52 -24 -81 -42 -70 -5 3 -12
41 -16 85 -3 43 -12 95 -19 115 l-12 36 -44 -23 c-24 -13 -46 -30 -50 -38 -9
-17 3 -257 14 -281 5 -14 2 -18 -14 -18 -12 0 -21 3 -21 8 0 4 -13 16 -30 27
-36 24 -44 43 -29 62 9 10 10 88 5 306 -4 161 -11 319 -15 353 -4 34 -5 66 -3
73 4 12 39 6 57 -11z m-12987 -30 c7 -7 22 -13 35 -13 29 0 35 -31 8 -40 -12
-3 -21 -13 -21 -21 0 -16 -18 -18 -40 -4 -13 8 -11 11 8 16 33 9 27 31 -10 38
-24 5 -36 2 -44 -9 -6 -8 -14 -12 -17 -8 -11 10 -8 23 4 23 6 0 17 7 25 15 19
18 36 19 52 3z m-898 -29 c41 -11 95 -24 120 -28 73 -13 140 -33 140 -42 0 -5
-8 -9 -17 -9 -16 0 -44 6 -193 40 -19 5 -72 17 -117 27 -46 10 -83 21 -83 25
0 14 74 8 150 -13z m-1096 5 c22 -8 21 -67 -1 -85 -13 -11 -17 -11 -20 -1 -7
18 -24 15 -50 -10 -20 -19 -23 -19 -23 -4 0 28 27 83 47 95 21 12 26 13 47 5z
m1888 -60 c-10 -12 -34 -30 -54 -39 -21 -9 -38 -23 -38 -30 0 -21 -42 -57 -53
-46 -13 13 1 51 19 51 8 0 14 4 14 9 0 17 115 99 122 88 3 -6 -1 -21 -10 -33z
m78 -14 c0 -5 -2 -10 -4 -10 -3 0 -8 5 -11 10 -3 6 -1 10 4 10 6 0 11 -4 11
-10z m10803 -12 c22 -12 46 -37 47 -50 0 -14 -45 13 -63 38 -20 27 -16 30 16
12z m-10738 -8 c3 -6 -1 -7 -9 -4 -18 7 -21 14 -7 14 6 0 13 -4 16 -10z m-35
-20 c0 -5 -5 -10 -11 -10 -5 0 -7 5 -4 10 3 6 8 10 11 10 2 0 4 -4 4 -10z
m11950 -36 c56 -18 293 -147 320 -174 11 -11 26 -20 33 -20 8 0 32 -13 53 -28
21 -15 66 -38 99 -51 70 -26 105 -55 105 -88 0 -35 -23 -29 -102 27 -39 28
-80 50 -90 50 -10 0 -21 6 -24 14 -8 20 -32 27 -52 15 -24 -14 -548 246 -533
265 13 16 130 9 191 -10z m-12790 -39 c0 -13 -69 -45 -265 -120 -66 -26 -133
-53 -150 -60 -124 -55 -198 -85 -210 -85 -37 0 -7 33 86 95 179 120 291 167
434 183 78 9 105 6 105 -13z m11892 -32 c12 -28 213 -178 262 -196 17 -7 16
-10 -14 -32 -36 -27 -60 -22 -80 15 -6 11 -19 20 -28 20 -10 0 -27 7 -38 15
-17 13 -17 14 -1 15 19 0 21 8 8 29 -6 10 -19 12 -46 7 -31 -6 -41 -4 -58 15
-16 17 -18 25 -9 39 12 19 5 60 -9 60 -5 0 -9 5 -9 10 0 12 17 14 22 3z
m-11125 -38 c19 -20 14 -26 -14 -19 -13 4 -20 11 -16 20 7 18 11 18 30 -1z
m11083 6 c0 -19 -22 -23 -38 -7 -15 15 -14 16 11 16 15 0 27 -4 27 -9z
m-11440 -121 c0 -11 -4 -20 -10 -20 -5 0 -10 9 -10 20 0 11 5 20 10 20 6 0 10
-9 10 -20z m263 -57 c-7 -2 -13 -13 -13 -24 0 -17 -3 -18 -20 -7 -17 10 -18
14 -5 16 8 2 15 8 15 13 0 5 8 9 18 8 10 0 12 -3 5 -6z m13576 -17 c24 -29 14
-75 -42 -188 -32 -64 -60 -135 -63 -161 -8 -56 -21 -69 -30 -30 -3 15 -7 33
-9 38 -6 24 17 129 41 183 14 31 34 75 44 97 10 22 20 48 23 58 8 21 21 22 36
3z m-14974 -45 c-12 -21 -124 -71 -131 -60 -9 14 3 24 67 57 51 27 80 28 64 3z
m1110 19 c3 -5 1 -10 -4 -10 -6 0 -11 5 -11 10 0 6 2 10 4 10 3 0 8 -4 11 -10z
m228 -9 c6 -23 0 -31 -24 -31 -26 0 -32 16 -13 34 21 21 31 20 37 -3z m-163
-41 c0 -5 -2 -10 -4 -10 -3 0 -8 5 -11 10 -3 6 -1 10 4 10 6 0 11 -4 11 -10z
m13159 -35 c30 -15 46 -41 32 -49 -10 -6 -107 39 -116 54 -10 15 52 12 84 -5z
m-15477 -120 c21 -27 45 -66 53 -85 9 -19 20 -42 24 -51 5 -8 7 -37 4 -63 l-6
-48 62 -59 c34 -32 73 -62 87 -65 13 -3 24 -12 24 -19 0 -49 -128 7 -197 85
-18 20 -22 37 -23 91 0 76 -28 141 -85 202 -43 46 -46 70 -8 65 19 -2 39 -18
65 -53z m1325 49 c-3 -3 -12 -4 -19 -1 -8 3 -5 6 6 6 11 1 17 -2 13 -5z m913
-45 c0 -5 -7 -9 -15 -9 -15 0 -20 12 -9 23 8 8 24 -1 24 -14z m-1170 -79 c0
-5 -7 -10 -16 -10 -8 0 -12 5 -9 10 3 6 10 10 16 10 5 0 9 -4 9 -10z m-40 -40
c12 -8 12 -10 1 -10 -7 0 -30 -15 -50 -32 -69 -62 -103 -83 -144 -90 -22 -4
-42 -6 -45 -4 -6 6 52 56 65 56 7 0 13 4 13 8 0 5 21 19 46 33 25 13 55 30 67
36 26 15 28 15 47 3z m14885 -80 c3 -6 0 -10 -7 -10 -7 0 -19 9 -26 21 -12 19
-11 19 7 10 11 -6 23 -16 26 -21z m590 -20 c-19 -21 -65 -28 -65 -10 0 6 9 10
19 10 11 0 23 5 26 10 3 6 13 10 22 10 14 0 14 -3 -2 -20z m-524 -27 c13 -16
12 -17 -3 -4 -17 13 -22 21 -14 21 2 0 10 -8 17 -17z m749 -12 c15 -29 12 -57
-10 -93 l-20 -33 0 50 c0 28 -3 60 -6 73 -8 28 21 31 36 3z m-15895 -10 c3 -5
1 -12 -5 -16 -5 -3 -10 1 -10 9 0 18 6 21 15 7z m-78 -74 c-6 -19 -24 -18 -29
1 -4 15 -1 18 14 14 10 -2 17 -9 15 -15z m16047 -488 c33 -29 141 -132 239
-230 98 -99 182 -179 186 -179 5 0 12 19 16 43 4 23 20 87 37 142 16 55 33
114 37 130 5 17 21 50 36 73 54 82 67 9 34 -188 -18 -109 -39 -286 -39 -329 0
-100 39 -172 124 -226 109 -69 174 -157 310 -417 37 -71 73 -128 81 -128 19 0
34 53 43 146 6 64 10 79 25 82 9 2 17 -2 17 -8 0 -6 11 -26 25 -44 17 -23 25
-46 25 -74 0 -56 -24 -167 -49 -226 -12 -26 -21 -63 -21 -83 0 -71 -18 -45
-161 239 -38 75 -69 140 -69 143 0 10 -83 124 -117 160 -44 47 -139 167 -152
193 -19 36 -35 54 -191 215 -80 82 -149 155 -155 161 -5 6 -46 52 -90 101 -44
50 -115 128 -158 173 -43 46 -86 101 -97 123 -39 76 -21 78 64 8z m1215 -433
c20 -20 52 -50 72 -66 35 -29 68 -85 56 -96 -6 -6 -39 10 -59 29 -7 7 -34 29
-61 49 -64 48 -114 54 -237 27 -182 -39 -217 -35 -117 14 134 65 205 87 266
83 35 -3 52 -11 80 -40z m-19315 19 c20 -8 36 -21 36 -29 0 -7 10 -20 23 -29
18 -12 20 -18 10 -28 -10 -10 -28 -8 -93 11 -98 28 -175 24 -325 -16 -55 -15
-113 -29 -130 -32 l-30 -5 24 26 c79 86 375 148 485 102z m124 -194 c10 -6 4
-13 -21 -25 -19 -9 -40 -16 -45 -16 -6 0 -68 -23 -139 -51 -366 -144 -372
-148 -397 -257 -12 -53 -13 -82 -5 -136 12 -89 3 -96 -70 -46 -40 27 -60 49
-69 74 -24 64 -41 49 -121 -109 -45 -87 -50 -112 -23 -122 9 -3 24 -12 32 -18
36 -30 121 -69 219 -101 105 -35 141 -59 141 -94 0 -41 -23 -41 -131 -4 -57
20 -121 45 -141 55 -21 11 -45 19 -54 19 -9 0 -32 14 -51 30 -38 34 -63 38
-85 13 -29 -33 -50 -85 -44 -108 4 -17 0 -27 -19 -39 -14 -9 -25 -23 -25 -31
0 -8 -8 -22 -19 -32 -22 -21 -35 -83 -26 -124 5 -22 12 -29 31 -29 38 0 33
-43 -9 -69 -51 -31 -80 -66 -73 -89 7 -20 -15 -52 -35 -52 -5 0 -9 -11 -9 -24
0 -19 15 -33 70 -66 56 -34 68 -45 59 -56 -17 -21 -8 -34 45 -63 42 -23 51
-33 62 -72 10 -35 24 -53 53 -73 45 -31 55 -50 38 -65 -13 -10 -57 -3 -113 20
-31 12 -64 8 -64 -9 0 -5 17 -18 38 -30 64 -38 145 -106 153 -130 16 -44 -18
-34 -123 34 -203 133 -262 180 -286 228 -40 83 1 99 68 26 44 -48 112 -90 145
-90 39 0 34 45 -11 91 -19 20 -41 54 -49 75 -11 32 -22 44 -67 65 -29 15 -66
29 -83 33 -26 5 -34 0 -60 -35 -16 -22 -45 -58 -62 -80 -38 -47 -57 -109 -49
-154 8 -41 45 -75 124 -115 35 -17 103 -59 150 -94 98 -70 145 -93 249 -125
49 -15 74 -28 78 -41 7 -21 -19 -79 -44 -96 -13 -10 -13 -14 -2 -28 13 -16 13
-36 -14 -541 -3 -44 -10 -134 -17 -200 -9 -82 -13 -305 -13 -705 0 -568 6
-716 36 -925 17 -120 24 -371 10 -379 -7 -5 -14 -6 -17 -3 -15 15 -95 416
-115 579 -7 54 -16 102 -19 109 -16 24 -49 -12 -80 -88 -44 -107 -102 -213
-113 -206 -4 3 -7 62 -5 133 3 126 2 127 -26 164 -16 21 -35 36 -44 34 -22 -4
-88 -102 -152 -223 -70 -134 -87 -162 -107 -169 -14 -6 -15 1 -10 56 8 79 54
208 109 307 34 60 81 115 218 254 96 98 185 182 198 187 12 5 22 16 22 25 0 8
-78 95 -173 192 -183 189 -244 267 -313 401 -50 98 -64 154 -64 265 0 119 12
124 74 29 63 -96 184 -222 213 -222 28 0 30 16 21 214 -10 231 -3 238 71 71
71 -161 105 -229 117 -232 14 -5 39 60 54 137 21 111 74 666 64 681 -2 4 -23
2 -47 -6 -23 -8 -89 -26 -147 -41 -111 -29 -198 -59 -292 -101 -60 -28 -87
-60 -136 -166 -97 -207 -132 -541 -131 -1252 0 -619 15 -783 96 -1050 13 -43
65 -114 101 -138 75 -51 214 -103 352 -132 252 -52 309 -73 344 -124 35 -50
34 -79 -1 -87 -16 -3 -50 -16 -78 -29 -27 -13 -95 -42 -150 -66 -55 -23 -135
-68 -179 -98 -112 -80 -236 -227 -236 -282 0 -28 59 -81 137 -126 35 -19 65
-39 69 -44 11 -18 44 -8 61 19 9 15 32 44 49 65 18 22 30 45 27 53 -6 16 -64
34 -110 34 -23 0 -37 7 -49 24 -14 23 -14 28 1 60 22 45 117 127 207 178 17 9
40 25 52 35 39 35 105 73 126 73 26 0 59 19 83 48 10 12 23 20 28 17 15 -10
10 -35 -8 -42 -10 -3 -39 -27 -64 -52 -25 -25 -64 -61 -85 -79 -36 -32 -38
-35 -21 -47 31 -23 88 -27 142 -10 81 24 124 18 110 -17 -5 -12 -77 -58 -179
-115 -67 -38 -63 -44 12 -18 89 31 107 31 138 0 35 -35 21 -54 -71 -99 -41
-21 -75 -41 -75 -46 0 -4 -29 -29 -64 -55 -82 -60 -109 -124 -69 -167 24 -26
56 -22 92 13 18 17 54 40 79 51 25 12 68 36 94 54 26 19 50 34 52 34 3 0 27
14 55 31 28 18 57 29 66 26 24 -10 19 -52 -9 -65 -13 -6 -52 -32 -86 -59 -34
-26 -77 -56 -96 -66 -19 -10 -37 -24 -40 -32 -4 -8 -24 -20 -47 -26 -22 -6
-55 -22 -72 -35 -46 -35 -68 -30 -114 22 -64 73 -64 146 0 215 17 18 34 40 40
50 5 11 24 26 42 35 56 29 63 54 15 54 -45 -1 -132 -69 -183 -144 -36 -53 -40
-64 -40 -121 0 -55 5 -69 34 -111 18 -27 49 -62 70 -77 31 -25 42 -28 80 -23
24 3 60 15 80 25 20 11 54 27 76 36 22 9 60 26 84 36 141 64 230 69 220 13 -4
-18 -46 -41 -270 -147 -42 -20 -82 -43 -88 -51 -11 -14 -16 -14 -37 0 -35 23
-84 10 -84 -22 0 -14 5 -34 11 -45 6 -11 13 -48 17 -82 7 -58 9 -62 34 -65 19
-2 28 2 32 16 6 17 62 43 196 92 127 46 162 60 209 85 64 35 66 33 106 -85 34
-102 67 -173 99 -217 29 -40 42 -101 25 -117 -8 -8 -13 -8 -16 2 -3 7 -20 32
-39 55 -46 58 -67 99 -100 195 -31 94 -51 113 -89 88 -14 -9 -35 -16 -48 -16
-14 0 -30 -7 -37 -15 -7 -8 -19 -15 -28 -15 -8 0 -67 -31 -131 -69 -180 -108
-198 -111 -243 -39 -28 46 -78 188 -78 224 0 11 -10 29 -21 40 -60 54 -159
227 -159 278 0 36 -27 63 -97 96 -152 70 -193 158 -141 297 47 128 317 349
478 393 41 11 37 37 -7 44 -72 14 -331 106 -409 147 -192 101 -246 165 -287
344 -52 221 -62 393 -61 1040 1 734 13 884 101 1195 28 102 57 157 106 202 38
34 147 88 179 88 62 1 240 67 296 110 l22 18 -63 64 c-36 36 -112 95 -173 133
-204 129 -210 137 -201 268 5 87 14 110 85 238 31 56 58 89 104 126 70 57 67
51 149 338 35 119 73 206 134 300 21 33 65 112 98 174 80 154 97 180 164 249
40 40 71 62 98 69 22 6 98 37 169 67 149 65 313 122 406 141 81 16 82 16 98 6z
m19402 -68 c0 -21 -18 -15 -36 12 -22 34 -7 55 17 24 10 -13 19 -30 19 -36z
m-1140 17 c0 -5 -4 -10 -10 -10 -5 0 -10 5 -10 10 0 6 5 10 10 10 6 0 10 -4
10 -10z m745 -25 c48 -9 122 -26 164 -40 42 -13 103 -31 136 -40 72 -20 91
-39 200 -198 100 -147 123 -185 198 -327 33 -63 81 -155 107 -205 26 -49 59
-124 74 -166 67 -199 105 -397 75 -401 -8 0 -19 -2 -25 -2 -15 -2 -44 -26 -44
-37 0 -5 40 -9 89 -9 173 0 210 -31 273 -225 55 -168 47 -262 -25 -298 -49
-25 -162 -67 -179 -67 -15 0 -97 -35 -214 -91 -33 -16 -68 -29 -77 -29 -9 0
-18 -4 -21 -9 -4 -5 -32 -17 -64 -26 -31 -9 -69 -20 -84 -24 -18 -6 -33 -5
-45 4 -23 17 -12 28 47 48 39 13 225 101 270 127 13 8 49 25 210 97 25 11 60
33 78 48 31 26 32 29 32 108 0 83 -18 162 -45 204 -19 29 -101 53 -182 53 -52
0 -65 3 -75 20 -7 11 -17 20 -23 20 -5 -1 -39 -28 -73 -60 l-64 -59 7 -51 c9
-66 26 -83 73 -74 39 7 98 41 121 68 17 20 60 21 68 0 3 -8 -1 -22 -8 -29 -24
-23 -186 -105 -239 -121 -27 -8 -84 -33 -125 -55 -42 -23 -82 -38 -90 -35 -27
10 -16 35 28 63 129 82 147 95 147 111 0 31 -37 78 -75 96 -33 16 -36 20 -23
33 9 8 34 17 57 20 33 5 45 12 62 39 11 19 36 52 54 74 65 77 70 157 14 204
-40 34 -74 42 -118 27 -64 -22 -185 -71 -225 -92 -46 -23 -66 -13 -66 36 0 38
30 70 58 61 10 -4 39 1 63 9 77 28 223 57 257 51 49 -7 92 -44 118 -100 l24
-51 0 45 c0 54 -20 122 -49 170 -28 47 -39 70 -45 101 -8 37 -51 79 -81 79
-17 0 -48 -19 -88 -52 -73 -61 -175 -128 -194 -128 -13 0 -19 40 -5 40 15 1
122 107 171 171 49 64 58 89 45 123 -10 26 -21 19 -52 -36 -44 -77 -89 -126
-202 -217 -105 -84 -143 -99 -155 -61 -9 29 3 40 116 116 92 62 162 130 204
199 10 17 29 39 42 51 24 20 24 22 9 59 -9 20 -16 43 -16 51 0 44 -177 302
-283 412 -58 60 -98 78 -213 97 -153 25 -264 61 -264 85 0 14 65 12 165 -5z
m-725 -55 c0 -5 -4 -10 -9 -10 -6 0 -13 5 -16 10 -3 6 1 10 9 10 9 0 16 -4 16
-10z m-18456 -363 c19 -51 20 -86 4 -119 -30 -56 -144 -218 -154 -218 -6 0
-15 10 -21 23 -5 12 -24 53 -42 90 -26 53 -32 75 -27 103 4 18 10 34 14 34 5
0 23 -16 42 -35 27 -27 37 -32 52 -24 16 9 53 77 87 162 15 38 26 34 45 -16z
m19550 -323 c9 -8 16 -20 16 -27 0 -18 -52 -67 -72 -67 -16 0 -48 46 -48 69 0
19 32 41 60 41 16 0 36 -7 44 -16z m-20219 -65 c6 -18 115 -96 157 -111 43
-17 148 -94 146 -108 -5 -27 -45 -22 -110 12 -101 54 -288 181 -288 195 0 15
34 31 67 32 13 1 24 -7 28 -20z m-40 -234 c101 -48 192 -89 253 -115 37 -16
52 -28 52 -42 0 -10 -6 -21 -13 -24 -8 -3 -108 33 -223 80 -211 85 -231 98
-203 132 16 19 42 13 134 -31z m-3 -150 c33 -19 61 -35 64 -35 12 0 84 -51 84
-60 0 -38 -115 -34 -130 4 -4 13 -23 29 -42 36 -75 29 -96 42 -109 66 -29 55
31 50 133 -11z m-111 -52 c1 -10 1 -22 0 -27 -4 -22 13 -46 57 -76 26 -19 49
-37 52 -41 3 -4 30 -17 60 -29 70 -28 89 -53 50 -65 -29 -9 -155 32 -179 58
-82 91 -131 151 -131 161 0 36 89 54 91 19z m20114 7 c3 -5 1 -10 -4 -10 -6 0
-11 5 -11 10 0 6 2 10 4 10 3 0 8 -4 11 -10z m650 -94 c17 -13 15 -16 -36 -45
-30 -17 -57 -31 -61 -31 -12 0 -113 -67 -127 -84 -7 -9 -22 -16 -33 -16 -15 0
-18 5 -13 23 19 61 147 148 246 166 3 1 14 -5 24 -13z m-895 -286 c0 -5 -4
-10 -10 -10 -5 0 -10 5 -10 10 0 6 5 10 10 10 6 0 10 -4 10 -10z m585 -20 c7
-21 0 -40 -14 -40 -11 0 -19 31 -14 48 7 18 21 15 28 -8z m421 -205 c2 -5 -15
-23 -39 -39 -23 -16 -55 -45 -71 -64 -32 -37 -139 -94 -162 -85 -25 9 -15 37
24 63 20 14 59 47 86 73 27 27 58 53 70 57 27 12 89 8 92 -5z m37 -356 c172
-26 312 -88 411 -183 99 -95 120 -171 136 -496 5 -96 14 -281 21 -411 12 -236
6 -555 -21 -1074 -19 -368 -66 -605 -151 -765 -87 -165 -281 -283 -502 -307
-66 -7 -79 -18 -46 -40 13 -9 43 -36 67 -60 39 -40 43 -49 40 -86 l-3 -42 -80
1 c-44 0 -104 4 -132 9 l-53 8 0 -32 c0 -18 10 -45 21 -61 23 -30 20 -60 -6
-60 -22 0 -185 82 -185 93 0 5 29 7 67 6 41 -3 68 0 70 7 3 9 -58 32 -128 48
-28 6 -46 33 -32 47 4 4 26 3 48 -3 58 -15 135 -21 135 -11 0 6 -18 18 -40 29
-22 10 -40 22 -40 27 0 10 44 9 56 -1 16 -15 137 -60 174 -66 74 -12 78 24 8
73 -24 17 -62 45 -84 62 -23 18 -82 53 -130 79 -87 46 -89 47 -88 82 2 70 7
72 75 28 80 -52 127 -64 212 -55 111 11 175 29 282 81 75 37 203 160 236 229
21 45 24 63 23 170 0 108 -4 130 -33 220 -35 105 -100 246 -128 277 -20 23
-39 23 -48 1 -5 -10 -10 -107 -13 -215 -3 -156 -7 -198 -18 -198 -22 0 -40 35
-99 193 -86 231 -109 287 -118 287 -9 0 -10 -4 -26 -77 -26 -122 -32 -153 -47
-258 -24 -157 -66 -276 -147 -412 -57 -97 -82 -109 -72 -35 3 26 10 67 15 92
11 55 35 209 49 310 23 166 49 479 61 710 5 107 15 242 22 300 18 162 15 616
-6 785 -23 184 -57 368 -90 480 -20 68 -29 140 -22 168 5 21 13 25 71 30 36 4
73 11 83 16 23 14 116 14 205 0z m-20583 -1969 c0 -5 -4 -10 -10 -10 -5 0 -10
5 -10 10 0 6 5 10 10 10 6 0 10 -4 10 -10z m-20 -72 c0 -5 -4 -8 -10 -8 -5 0
-10 10 -10 23 0 18 2 19 10 7 5 -8 10 -18 10 -22z m19940 -128 c0 -5 -4 -10
-10 -10 -5 0 -10 5 -10 10 0 6 5 10 10 10 6 0 10 -4 10 -10z m137 -512 c-3 -8
-6 -5 -6 6 -1 11 2 17 5 13 3 -3 4 -12 1 -19z m-17 -98 c0 -11 -4 -20 -10 -20
-5 0 -10 9 -10 20 0 11 5 20 10 20 6 0 10 -9 10 -20z m-19930 -246 c0 -8 -5
-12 -10 -9 -6 4 -8 11 -5 16 9 14 15 11 15 -7z m20560 -394 c35 -18 89 -75
117 -126 40 -73 17 -154 -65 -223 -42 -36 -52 -51 -62 -94 -28 -128 -42 -179
-57 -214 -9 -21 -19 -54 -24 -73 -18 -88 -121 -317 -145 -327 -8 -3 -26 -27
-41 -54 -28 -53 -34 -57 -52 -35 -7 8 -23 17 -36 20 -13 3 -37 25 -52 49 -25
37 -48 52 -190 122 -88 44 -168 86 -177 94 -24 20 -21 51 5 51 33 0 276 -126
340 -177 48 -37 63 -44 85 -39 l27 7 -7 80 c-4 44 -9 100 -13 124 l-6 44 -91
44 c-50 24 -107 49 -126 56 -19 7 -44 17 -55 21 -11 5 -55 23 -98 41 -43 17
-76 36 -74 43 7 21 64 17 128 -8 34 -14 64 -24 66 -23 2 2 -12 19 -30 38 -18
19 -41 48 -52 66 -15 26 -16 34 -6 47 8 9 20 16 27 16 10 0 13 7 8 25 -6 23
-3 25 26 25 27 0 146 -56 268 -126 l33 -19 20 24 c25 30 26 102 2 123 -24 21
-89 53 -160 80 -95 35 -158 73 -158 94 0 16 7 19 45 18 25 -1 70 -8 100 -17
30 -9 78 -17 107 -17 57 0 109 -15 217 -62 76 -33 123 -33 158 -1 23 20 48 76
48 106 0 33 -45 99 -94 140 -25 21 -46 42 -46 47 0 17 49 11 90 -10z m-70
-156 c0 -9 -7 -14 -17 -12 -25 5 -28 28 -4 28 12 0 21 -6 21 -16z m-19870
-115 c0 -5 -7 -9 -15 -9 -15 0 -20 12 -9 23 8 8 24 -1 24 -14z m100 -181 c0
-19 -2 -20 -10 -8 -13 19 -13 30 0 30 6 0 10 -10 10 -22z m23 -58 c3 -11 1
-20 -4 -20 -5 0 -9 9 -9 20 0 11 2 20 4 20 2 0 6 -9 9 -20z m18362 -29 c3 -5
1 -12 -5 -16 -5 -3 -10 1 -10 9 0 18 6 21 15 7z m600 -301 c4 -22 4 -43 1 -48
-3 -5 -13 -90 -21 -188 -16 -195 -25 -245 -40 -245 -14 0 -34 156 -36 276 -1
85 3 109 24 160 13 33 27 68 30 77 10 29 35 10 42 -32z"/>
<path d="M14090 23590 c-63 -5 -194 -16 -290 -25 -96 -8 -271 -18 -387 -21
-155 -5 -213 -10 -213 -19 0 -20 198 -156 415 -285 141 -83 242 -158 328 -244
l80 -79 85 87 c47 48 121 116 166 150 200 156 503 338 640 384 31 10 59 22 62
25 3 3 -11 11 -33 17 -49 15 -696 22 -853 10z"/>
<path d="M15160 23521 c-58 -5 -72 -11 -120 -49 -129 -102 -219 -205 -206
-237 7 -20 77 -20 181 0 87 17 105 15 105 -13 0 -22 -35 -55 -119 -111 -63
-43 -215 -121 -235 -121 -6 0 -22 -9 -36 -19 -20 -16 -22 -21 -11 -35 10 -12
33 -16 95 -16 99 0 316 -29 487 -65 192 -41 196 -41 224 -15 78 73 115 263 79
404 -32 125 -130 256 -191 256 -13 0 -32 4 -41 9 -25 12 -137 19 -212 12z"/>
<path d="M12847 23506 c-29 -13 -127 -104 -127 -118 0 -5 -11 -26 -24 -47 -44
-70 -66 -155 -66 -259 0 -77 4 -104 21 -139 37 -76 45 -79 243 -65 94 7 226
12 293 12 71 0 124 4 128 10 9 14 -62 92 -162 180 -79 68 -95 91 -74 105 12 7
183 -12 231 -26 82 -24 104 -27 121 -18 38 20 1 64 -134 161 -286 204 -367
241 -450 204z"/>
<path d="M18336 22298 c-15 -21 -14 -24 11 -50 l26 -27 -29 -11 c-16 -6 -32
-17 -36 -23 -32 -51 38 -169 90 -153 29 10 54 74 59 156 5 66 3 78 -17 103
-28 35 -81 38 -104 5z"/>
<path d="M9840 22478 c-71 -44 -80 -59 -57 -101 20 -36 93 -89 117 -85 12 3
15 23 16 111 1 75 -2 107 -10 107 -7 0 -36 -15 -66 -32z"/>
<path d="M9855 22140 c6 -51 5 -60 -9 -60 -19 0 -19 -21 -2 -69 8 -22 15 -31
20 -23 14 23 24 12 30 -32 7 -44 21 -63 64 -86 20 -10 27 -9 43 6 29 26 23 67
-22 162 -53 109 -89 162 -112 162 -17 0 -18 -6 -12 -60z"/>
<path d="M19389 21676 c-47 -23 -93 -169 -75 -240 8 -33 22 -33 52 -1 27 29
59 32 73 7 10 -18 0 -44 -26 -70 -26 -26 -72 -99 -77 -123 -3 -13 2 -55 12
-94 15 -56 22 -70 37 -70 23 0 32 31 47 150 11 96 33 144 93 208 42 44 45 51
39 85 -5 28 -75 142 -87 142 -1 0 -16 4 -33 9 -21 6 -39 5 -55 -3z"/>
<path d="M22246 19443 c-20 -21 -36 -42 -36 -49 0 -6 18 -16 40 -23 55 -16 51
-33 -7 -31 -27 2 -53 2 -59 1 -13 -1 -44 -71 -44 -97 0 -8 -11 -30 -25 -48
-28 -37 -30 -53 -13 -91 15 -33 47 -32 80 3 36 39 88 117 123 186 25 49 37 61
72 75 53 21 59 27 42 47 -14 17 -105 64 -125 64 -6 0 -28 -17 -48 -37z"/>
<path d="M3687 12260 c-37 -28 -67 -58 -67 -68 0 -12 16 -23 49 -35 49 -17 50
-17 113 8 70 28 155 90 138 100 -6 3 -36 3 -67 -1 -53 -6 -58 -5 -78 20 l-21
27 -67 -51z"/>
<path d="M24420 15565 c-11 -13 -4 -57 38 -248 54 -246 87 -418 102 -531 11
-91 23 -101 63 -54 38 43 50 67 111 218 58 142 61 149 77 133 9 -9 16 -80 22
-220 8 -191 15 -233 37 -233 30 0 110 99 123 150 3 14 32 55 63 90 86 100 88
105 88 260 1 108 -2 141 -16 165 -63 114 -229 220 -418 266 -97 24 -271 26
-290 4z"/>
<path d="M25133 14843 c-7 -16 -31 -71 -54 -123 -77 -179 -184 -310 -403 -492
-67 -56 -125 -107 -129 -115 -6 -10 30 -54 130 -156 146 -150 206 -232 286
-387 133 -260 159 -295 171 -237 29 131 45 417 52 922 5 400 -5 603 -31 612
-6 2 -16 -9 -22 -24z"/>
<path d="M24530 11951 c0 -5 10 -22 23 -38 42 -52 57 -82 64 -128 7 -53 -12
-63 -28 -15 -13 36 -39 40 -39 6 0 -60 -35 -105 -81 -106 -20 0 -33 10 -53 40
-34 51 -166 119 -233 120 l-23 0 21 -37 c41 -72 63 -96 133 -142 70 -45 72
-46 151 -45 111 0 156 24 193 102 20 42 27 73 27 116 l0 59 -64 38 c-62 38
-91 48 -91 30z"/>
<path d="M24533 11523 c-24 -8 -43 -20 -43 -26 0 -36 31 -152 44 -165 13 -14
18 -12 44 16 32 34 46 85 36 129 -16 72 -12 70 -81 46z"/>
<path d="M24440 11178 c0 -25 3 -29 10 -18 13 20 13 50 0 50 -5 0 -10 -15 -10
-32z"/>
<path d="M12292 20619 c-129 -33 -207 -79 -326 -190 -101 -94 -171 -183 -269
-339 -197 -314 -457 -934 -592 -1410 -65 -233 -101 -370 -135 -525 -17 -77
-51 -223 -76 -325 -54 -225 -60 -250 -83 -370 -14 -72 -21 -90 -27 -75 -13 29
-9 519 5 660 44 451 43 443 77 685 17 126 29 204 49 330 27 170 55 375 61 452
6 68 4 81 -20 134 -35 77 -68 110 -129 130 -132 44 -354 -36 -546 -196 -58
-49 -94 -90 -221 -250 l-27 -35 -33 68 c-38 82 -112 158 -174 182 -37 14 -69
17 -183 13 -130 -4 -144 -7 -235 -42 -325 -124 -648 -326 -1061 -664 -479
-391 -922 -951 -1085 -1372 -124 -319 -159 -665 -97 -959 104 -489 456 -738
915 -645 51 10 163 57 228 96 75 44 218 186 274 273 77 119 93 181 61 235 -23
39 -50 43 -129 19 -99 -30 -237 -24 -312 14 -149 77 -241 365 -212 665 19 194
56 337 140 539 97 232 275 511 465 728 38 44 81 93 95 109 14 15 68 65 120
111 255 220 432 315 593 315 122 0 187 -55 187 -157 -1 -66 -16 -123 -103
-388 -42 -126 -92 -282 -112 -345 -21 -63 -59 -182 -85 -265 -49 -151 -113
-354 -190 -605 -23 -74 -48 -153 -55 -175 -7 -22 -23 -74 -35 -115 -172 -580
-303 -891 -495 -1180 -140 -211 -320 -378 -475 -441 -80 -33 -225 -33 -295 -1
-60 28 -112 75 -131 119 -21 48 -18 120 6 150 45 58 34 133 -23 153 -92 32
-168 -2 -204 -90 -27 -66 -28 -106 -7 -208 36 -176 196 -399 354 -493 174
-103 368 -138 570 -104 126 21 278 76 396 141 27 15 58 32 69 38 11 6 69 47
130 92 89 66 185 154 291 268 71 76 170 249 206 360 40 126 119 486 153 701 9
55 20 127 26 160 5 33 18 123 29 200 26 188 63 411 95 575 14 74 30 158 35
185 5 28 16 84 25 125 10 41 21 91 25 110 12 57 80 318 106 410 13 47 29 101
34 120 34 127 74 250 81 250 21 0 40 -131 59 -405 5 -82 14 -213 20 -290 12
-175 27 -469 40 -775 28 -673 93 -1002 225 -1148 65 -73 196 -114 296 -93 200
42 303 183 387 533 13 54 35 237 52 438 26 303 70 659 105 855 8 44 26 148 40
230 37 217 135 641 180 780 7 22 32 101 55 175 91 290 178 519 211 554 34 36
31 -5 -15 -230 -73 -359 -98 -543 -136 -1004 -32 -374 -29 -1011 5 -1295 86
-713 284 -1296 564 -1660 25 -33 48 -62 51 -65 3 -3 32 -36 65 -74 87 -101
172 -180 272 -253 109 -80 196 -125 332 -170 103 -35 110 -36 261 -36 140 -1
164 2 248 26 111 33 235 95 275 140 85 93 102 161 52 204 -44 38 -67 38 -137
0 -110 -61 -157 -71 -313 -72 -121 0 -149 3 -204 23 -253 91 -468 305 -629
627 -98 195 -153 361 -205 610 -98 472 -89 1109 27 1890 35 232 174 823 401
1700 134 517 137 666 14 783 -75 73 -173 89 -317 51z"/>
<path d="M14805 20505 c-263 -27 -597 -78 -890 -136 -331 -66 -800 -195 -875
-241 -29 -17 -39 -41 -21 -52 8 -6 136 25 306 72 135 38 392 98 630 147 39 8
102 22 140 30 67 15 88 19 220 45 205 39 477 72 740 90 94 6 174 15 178 19 5
5 -2 16 -14 25 -29 20 -217 20 -414 1z"/>
<path d="M15330 20219 c-96 -5 -314 -13 -484 -19 -169 -6 -345 -15 -390 -21
-189 -23 -325 -40 -381 -50 -298 -48 -626 -115 -690 -139 -23 -9 -25 -13 -15
-25 14 -16 50 -15 205 6 39 5 88 11 110 14 22 2 94 13 160 25 66 12 152 25
190 30 39 5 82 11 95 14 71 17 447 58 605 66 681 37 812 48 820 68 7 19 -13
42 -34 40 -9 -1 -95 -5 -191 -9z"/>
<path d="M16654 20090 c-108 -22 -243 -131 -291 -236 -99 -218 -10 -490 193
-590 208 -102 494 -12 593 188 92 184 59 383 -86 518 -116 109 -256 150 -409
120z"/>
<path d="M15170 19998 c-300 -17 -851 -94 -898 -124 -13 -9 -22 -23 -20 -32 4
-20 47 -21 158 -3 312 51 538 81 810 106 85 8 189 15 230 15 86 0 110 9 84 31
-21 18 -150 20 -364 7z"/>
<path d="M15790 19829 c-94 -9 -319 -26 -510 -39 -225 -15 -603 -53 -700 -70
-193 -33 -387 -70 -610 -116 -96 -20 -200 -40 -230 -44 -30 -4 -116 -24 -190
-43 -74 -20 -160 -42 -190 -50 -82 -22 -130 -44 -130 -61 0 -30 10 -29 229 15
30 6 108 20 175 30 67 10 150 26 186 34 69 16 80 18 310 60 264 47 492 84 619
100 138 17 332 40 456 55 44 5 240 23 435 40 195 17 361 33 368 35 17 6 15 52
-4 59 -19 7 -103 6 -214 -5z"/>
<path d="M15845 19470 c-16 -4 -62 -8 -101 -9 -39 0 -84 -5 -100 -11 -16 -5
-119 -19 -229 -30 -196 -19 -286 -30 -415 -50 -122 -18 -435 -70 -515 -85 -44
-8 -141 -25 -215 -39 -365 -66 -505 -102 -832 -210 -295 -97 -352 -122 -356
-153 -3 -23 8 -28 48 -24 8 1 98 28 200 61 304 96 406 125 625 176 400 93 722
153 1070 199 66 9 134 18 150 21 17 3 84 11 150 19 293 35 464 56 514 65 30 6
78 10 106 10 61 0 78 12 63 46 -10 22 -17 24 -72 23 -34 -1 -74 -5 -91 -9z"/>
<path d="M18475 18984 c-128 -17 -221 -54 -342 -135 -196 -132 -383 -392 -462
-644 -55 -174 -66 -223 -86 -390 -50 -400 -67 -449 -194 -568 -64 -60 -121
-86 -187 -87 -94 0 -119 57 -110 254 19 409 37 1354 27 1406 -18 91 -88 116
-288 100 -157 -13 -348 -43 -396 -64 -25 -10 -38 -23 -43 -42 -4 -15 -4 -104
0 -198 4 -94 2 -437 -5 -762 -13 -641 -10 -733 34 -862 50 -147 154 -275 276
-341 176 -94 468 -98 659 -9 119 55 245 168 313 279 17 27 35 49 40 49 4 0 27
-26 51 -57 60 -83 154 -173 220 -212 32 -18 97 -47 145 -64 81 -28 98 -31 218
-30 114 0 139 3 208 26 127 44 213 106 307 224 32 40 67 89 76 108 9 19 21 35
28 35 6 0 38 -48 71 -107 98 -173 198 -271 350 -343 178 -84 382 -93 582 -25
248 85 491 349 559 612 19 72 18 221 -2 289 -35 123 -133 214 -228 214 -39 -1
-60 -7 -91 -28 -51 -36 -69 -68 -106 -192 -17 -57 -43 -129 -57 -159 -35 -75
-115 -156 -167 -170 -122 -33 -197 11 -247 145 -21 56 -22 75 -22 389 0 253 3
359 16 455 9 69 22 175 28 235 7 61 16 135 21 165 17 103 22 303 7 330 -34 63
-301 146 -509 157 -109 5 -119 4 -157 -17 -25 -14 -45 -34 -51 -52 -11 -31
-35 -36 -66 -14 -44 29 -113 64 -160 79 -50 16 -204 29 -260 21z m303 -444
c37 -23 88 -98 102 -150 19 -75 22 -181 11 -399 -25 -491 -53 -612 -168 -730
-62 -63 -101 -81 -181 -81 -59 0 -100 20 -144 68 -46 51 -69 95 -99 192 -22
68 -24 93 -24 260 1 197 11 273 61 435 63 203 181 374 281 408 66 22 121 21
161 -3z"/>
<path d="M15789 18786 c-78 -22 -151 -60 -214 -111 -60 -47 -68 -56 -134 -131
l-34 -38 -16 23 c-52 74 -66 84 -125 89 -96 8 -358 -33 -454 -70 -80 -31 -86
-49 -79 -233 7 -180 -18 -1084 -34 -1205 -26 -203 -75 -323 -163 -395 -56 -46
-108 -66 -170 -68 -199 -4 -215 178 -116 1318 19 222 24 382 11 390 -24 14
-147 35 -208 35 -135 0 -308 -37 -380 -81 -38 -23 -89 -85 -95 -114 -4 -25
-28 -25 -118 0 -82 22 -254 16 -345 -13 -212 -67 -378 -205 -554 -462 -92
-135 -173 -323 -215 -500 -40 -171 -51 -288 -51 -535 1 -332 31 -479 132 -648
90 -148 213 -238 375 -271 95 -20 135 -20 218 -1 167 39 321 128 417 242 62
75 173 234 173 249 0 30 36 12 59 -29 116 -204 299 -264 586 -191 110 28 215
90 340 204 l56 51 30 -26 c17 -14 43 -25 57 -25 40 0 228 33 348 60 283 65
307 77 318 168 4 26 11 279 16 562 10 541 23 812 41 895 21 94 83 183 152 218
35 18 61 12 75 -16 6 -12 24 -51 41 -87 44 -94 77 -113 205 -118 78 -4 110 -1
154 14 68 23 148 92 172 150 47 109 52 336 10 470 -32 101 -79 161 -164 204
-63 32 -76 35 -170 37 -61 1 -119 -3 -147 -11z m-2360 -1029 c74 -36 101 -160
101 -462 -1 -639 -65 -843 -283 -903 -112 -31 -235 86 -266 254 -17 94 -22
260 -12 379 44 492 256 831 460 732z"/>
<path d="M15915 15951 c-27 -4 -59 -11 -70 -16 -75 -30 -108 -50 -154 -91
-181 -163 -189 -444 -19 -634 93 -103 197 -144 348 -138 135 6 193 30 285 122
149 147 183 331 94 511 -88 178 -280 276 -484 246z"/>
<path d="M17285 15900 c-148 -13 -238 -29 -258 -48 -15 -16 -16 -26 -8 -86 11
-80 2 -613 -11 -638 -6 -14 -21 -18 -59 -18 -84 0 -241 -21 -270 -36 -39 -20
-92 -88 -130 -169 -75 -156 -68 -237 21 -262 14 -3 99 -1 190 5 208 15 207 15
214 -5 13 -33 -14 -1041 -30 -1147 -27 -181 -82 -303 -179 -402 -103 -106
-221 -154 -308 -125 -41 14 -67 52 -86 125 -16 65 -16 648 0 1131 15 444 9
486 -74 523 -62 27 -287 9 -487 -40 -97 -23 -155 -50 -169 -76 -6 -11 -8 -62
-4 -123 8 -143 -15 -1174 -28 -1279 -19 -146 -61 -249 -136 -325 -95 -96 -192
-101 -241 -12 -16 29 -17 65 -12 432 10 778 8 810 -57 939 -72 143 -241 246
-403 246 -94 0 -232 -35 -323 -82 -86 -44 -208 -155 -263 -238 -15 -23 -32
-39 -37 -37 -6 2 -16 24 -24 50 -26 90 -65 94 -308 32 -243 -63 -309 -86 -352
-127 l-23 -21 0 -451 c0 -407 -7 -583 -27 -686 -4 -25 -23 -52 -65 -93 -33
-32 -65 -56 -71 -54 -8 2 -14 45 -18 123 -12 223 -48 382 -118 522 -96 192
-218 301 -403 363 -230 77 -489 32 -728 -126 -87 -58 -217 -177 -272 -250 -12
-16 -25 -32 -29 -35 -7 -6 -76 -112 -98 -150 -151 -271 -211 -520 -211 -870 0
-96 -4 -181 -9 -188 -6 -9 -19 10 -44 63 -104 217 -276 403 -448 482 -43 20
-182 57 -261 68 -58 9 -54 19 56 142 64 72 188 238 239 320 71 115 117 214
161 345 48 141 66 247 66 393 0 336 -125 590 -390 787 -134 100 -321 162 -573
189 -94 10 -147 10 -265 1 -127 -11 -309 -37 -399 -58 -96 -22 -364 -109 -513
-167 -142 -54 -467 -215 -611 -302 -372 -226 -761 -553 -989 -835 -25 -30 -47
-57 -50 -60 -3 -3 -35 -43 -71 -90 -143 -184 -299 -447 -373 -625 -21 -50 -69
-235 -87 -335 -18 -100 -18 -404 0 -490 58 -277 199 -497 398 -619 29 -18 94
-47 145 -64 81 -27 107 -31 203 -31 99 -1 117 2 180 28 98 40 219 123 313 213
117 114 179 215 189 309 5 48 4 53 -22 70 -23 15 -32 16 -68 6 -128 -37 -174
-43 -237 -28 -119 28 -203 101 -266 232 -46 96 -57 165 -51 309 9 190 49 330
156 545 161 322 449 667 767 920 78 62 113 86 214 150 133 84 227 132 360 182
350 133 599 152 832 64 154 -57 250 -150 322 -307 76 -166 74 -466 -4 -701
-78 -232 -201 -395 -480 -633 -215 -185 -259 -258 -193 -320 34 -31 61 -32
115 -4 75 38 170 70 252 84 70 12 89 12 134 1 154 -41 265 -170 331 -386 89
-287 51 -632 -100 -933 -125 -247 -370 -476 -628 -587 -434 -188 -855 -191
-1247 -10 -270 125 -468 345 -605 670 -12 30 -31 67 -42 83 -17 26 -22 27 -70
22 -117 -14 -147 -25 -174 -66 -38 -57 -34 -127 16 -324 24 -95 125 -309 193
-410 147 -217 301 -352 538 -469 185 -92 350 -143 600 -188 119 -21 557 -17
690 6 259 45 433 99 645 202 393 189 741 503 937 844 153 268 237 588 239 911
0 79 4 153 9 164 5 12 9 14 9 6 1 -8 7 -22 14 -30 7 -9 28 -50 47 -91 148
-329 436 -512 738 -470 138 20 242 59 352 133 188 126 333 294 444 512 45 90
112 259 137 345 20 72 41 100 89 121 25 11 66 41 92 66 29 29 51 43 59 38 9
-6 11 -76 6 -324 -8 -426 -7 -427 100 -424 94 3 175 22 462 110 49 15 95 36
112 52 l28 26 6 540 c9 788 19 1034 44 1115 43 137 155 260 238 260 48 0 69
-14 95 -63 23 -42 23 -44 29 -662 6 -615 9 -670 44 -765 40 -111 122 -201 231
-252 58 -27 79 -31 177 -35 91 -4 128 -1 201 16 214 51 377 167 509 363 l52
76 75 -77 c136 -139 236 -189 400 -198 305 -17 592 142 800 445 71 104 65 103
124 12 39 -59 130 -155 184 -192 24 -16 80 -44 125 -61 78 -29 90 -31 227 -31
122 -1 158 3 225 22 125 36 214 85 302 166 72 68 175 191 202 243 16 30 32 21
61 -35 108 -210 288 -372 470 -425 146 -43 243 -47 364 -17 139 35 288 146
358 267 19 31 38 58 43 60 6 1 37 -48 69 -110 71 -134 73 -139 134 -201 87
-91 236 -171 382 -207 80 -19 263 -16 325 5 121 42 227 108 328 205 108 103
186 224 228 353 30 90 30 261 0 338 -34 89 -117 160 -189 160 -28 0 -73 -33
-98 -71 -14 -23 -41 -88 -60 -145 -40 -125 -61 -167 -108 -217 -97 -103 -242
-97 -312 14 -46 74 -55 135 -54 377 0 262 17 477 55 712 45 282 57 373 58 448
l2 84 -40 34 c-78 65 -218 116 -395 144 -130 20 -202 9 -244 -39 -26 -29 -39
-27 -99 17 -111 82 -219 116 -367 116 -217 0 -383 -75 -555 -249 -218 -222
-319 -438 -389 -830 -48 -264 -89 -354 -219 -476 -77 -73 -146 -103 -242 -107
-68 -2 -86 1 -119 20 -83 48 -110 163 -95 408 11 184 29 759 29 941 0 131 2
151 18 167 17 17 47 19 336 26 180 4 327 12 340 17 40 19 116 197 116 274 0
37 -5 47 -42 80 l-41 38 -336 -6 c-224 -4 -342 -2 -354 5 -18 10 -19 29 -15
380 l3 370 -24 19 c-21 17 -39 19 -185 18 -88 -1 -202 -5 -251 -9z m2248
-1535 c47 -19 102 -85 118 -143 28 -96 16 -431 -27 -747 -36 -265 -129 -418
-276 -455 -62 -16 -119 1 -166 48 -147 147 -184 494 -91 847 85 326 275 520
442 450z m-6774 -1067 c88 -86 142 -257 143 -455 0 -129 -12 -173 -49 -173
-30 0 -112 61 -146 108 -74 104 -111 231 -112 385 0 118 0 119 28 143 42 36
94 33 136 -8z m-554 -175 c0 -166 3 -198 23 -273 60 -218 166 -358 332 -438
47 -22 101 -44 121 -47 62 -11 64 -15 49 -87 -50 -242 -251 -415 -410 -352
-113 45 -227 217 -270 404 -7 30 -17 71 -22 90 -6 19 -12 108 -15 197 -4 127
-2 183 11 260 31 177 96 350 152 407 15 14 27 26 28 26 1 0 1 -84 1 -187z"/>
<path d="M5624 15693 c-10 -39 4 -53 97 -100 159 -80 391 -157 669 -223 283
-66 396 -67 376 -2 -8 24 -37 37 -123 57 -38 8 -90 22 -118 30 -27 8 -106 28
-175 45 -124 31 -175 44 -280 75 -30 9 -66 19 -80 22 -14 3 -90 32 -170 64
-165 67 -187 71 -196 32z"/>
<path d="M5260 15217 c0 -13 7 -30 15 -37 22 -18 152 -48 350 -80 99 -17 214
-37 255 -45 92 -18 241 -31 507 -46 219 -12 273 -6 273 31 0 28 19 24 -350 66
-188 21 -284 34 -365 49 -91 17 -127 22 -298 40 -78 9 -176 20 -217 26 -180
24 -170 24 -170 -4z"/>
<path d="M22220 15169 c-149 -7 -392 -39 -525 -69 -22 -5 -96 -21 -165 -35
-248 -51 -391 -92 -398 -113 -4 -12 25 -42 41 -42 7 0 28 5 47 10 73 22 394
77 580 100 41 6 135 19 209 30 122 18 263 27 741 48 134 6 155 9 158 24 2 9
-8 24 -23 34 -22 15 -59 17 -283 18 -141 1 -313 -2 -382 -5z"/>
<path d="M20680 15035 c-50 -23 -89 -63 -111 -113 -41 -94 -10 -183 85 -246
51 -34 66 -39 117 -39 60 0 88 12 142 62 45 41 58 76 60 156 2 68 0 76 -29
111 -17 21 -46 47 -65 57 -46 27 -152 33 -199 12z m166 -44 c64 -37 88 -82 82
-152 -9 -90 -77 -149 -173 -149 -46 0 -55 4 -91 38 -70 67 -78 165 -20 231 59
67 123 77 202 32z"/>
<path d="M20713 14970 c-33 -13 -47 -48 -45 -113 2 -63 27 -119 51 -115 11 2
14 19 12 75 -2 66 0 75 24 99 24 24 28 25 48 11 19 -12 22 -25 25 -86 2 -61 5
-71 21 -71 10 0 26 9 35 19 17 18 17 23 2 73 -26 91 -100 137 -173 108z"/>
<path d="M7300 14759 c-171 -27 -512 -46 -920 -54 -179 -3 -426 -10 -550 -15
-124 -5 -295 -9 -381 -10 -155 0 -179 -5 -179 -37 0 -7 10 -19 23 -27 38 -26
454 -36 992 -26 618 12 712 19 1038 78 156 28 172 36 156 80 -7 19 -15 22 -66
21 -32 -1 -83 -5 -113 -10z"/>
<path d="M22070 14741 c-52 -5 -174 -14 -270 -20 -436 -28 -596 -44 -632 -63
-25 -12 -22 -41 7 -68 28 -26 33 -26 370 10 99 10 243 24 320 29 77 6 198 16
268 21 172 13 540 13 707 -1 148 -13 245 -6 254 17 9 23 -40 40 -162 58 -130
19 -704 30 -862 17z"/>
<path d="M7225 14375 c-297 -38 -658 -55 -1315 -62 -311 -3 -573 -10 -582 -15
-23 -12 -23 -45 0 -57 12 -6 237 -13 563 -17 452 -5 579 -3 749 10 317 25 418
35 510 51 264 47 260 46 260 65 0 18 -33 40 -58 39 -15 -1 -72 -7 -127 -14z"/>
<path d="M22230 14359 c-69 -4 -165 -12 -215 -18 -49 -6 -148 -17 -220 -26
-233 -28 -279 -44 -261 -90 6 -15 15 -17 69 -11 583 63 648 67 1062 69 l390 2
3 23 c2 12 -3 24 -10 26 -84 24 -575 40 -818 25z"/>
<path d="M6465 13969 c-85 -9 -569 -36 -795 -44 -194 -7 -208 -10 -216 -41
-11 -45 10 -56 95 -49 42 3 144 8 226 10 310 10 559 31 878 77 91 12 102 31
27 47 -57 12 -111 12 -215 0z"/>
<path d="M21695 13960 c-285 -9 -621 -33 -680 -48 -36 -10 -44 -41 -21 -78 16
-23 22 -24 109 -24 97 0 327 13 537 30 344 29 793 30 1138 4 88 -7 92 -6 92
13 0 45 -13 48 -315 82 -229 25 -494 32 -860 21z"/>
<path d="M9305 13660 c-137 -42 -339 -120 -385 -149 -14 -9 -33 -25 -43 -36
-17 -19 -18 -53 -12 -675 3 -360 8 -704 10 -765 3 -60 10 -373 16 -695 10
-631 9 -617 64 -642 19 -9 39 -7 88 6 132 36 298 151 388 271 35 47 40 61 49
136 5 46 12 489 15 984 4 495 8 977 10 1070 3 217 -9 465 -24 493 -10 19 -20
22 -64 21 -29 0 -79 -9 -112 -19z"/>
<path d="M20999 12270 c-64 -33 -109 -106 -109 -174 0 -55 62 -136 131 -172
48 -24 137 -15 183 21 59 45 79 87 74 154 -10 141 -161 233 -279 171z m161
-43 c64 -47 70 -58 70 -128 0 -52 -4 -72 -21 -93 -11 -14 -27 -26 -34 -26 -8
0 -19 -9 -25 -20 -23 -43 -133 -12 -179 51 -20 27 -25 45 -24 95 1 67 13 94
60 126 23 15 38 18 83 12 30 -3 62 -11 70 -17z"/>
<path d="M21016 12178 c-16 -22 -22 -108 -9 -121 3 -4 12 -2 19 4 8 6 20 9 28
6 11 -5 17 5 21 37 4 24 5 54 3 67 -4 33 -41 37 -62 7z"/>
<path d="M21127 12183 c-10 -9 3 -105 16 -120 5 -7 16 -13 23 -13 15 0 20 73
8 118 -6 21 -33 30 -47 15z"/>
<path d="M21060 12028 c-6 -18 -4 -27 12 -40 48 -42 81 -3 35 40 -29 28 -35
27 -47 0z"/>
<path d="M2508 11783 c-78 -110 -97 -141 -126 -204 -161 -350 -182 -732 -62
-1126 61 -201 196 -452 327 -609 172 -206 363 -356 603 -475 218 -108 421
-170 835 -255 152 -32 426 -69 580 -80 55 -3 131 -12 169 -19 38 -7 75 -11 82
-8 7 3 39 48 70 101 139 238 281 374 544 520 393 219 616 296 1195 411 159 32
366 58 555 71 96 6 178 15 182 18 3 4 -14 30 -38 57 -131 145 -284 361 -377
532 -49 89 -73 146 -152 361 -15 41 -35 77 -46 83 -26 14 -103 3 -294 -41 -22
-6 -78 -19 -125 -29 -156 -37 -343 -81 -545 -131 -277 -68 -543 -132 -720
-175 -82 -20 -195 -47 -250 -60 -55 -13 -152 -35 -215 -50 -63 -14 -151 -35
-195 -45 -208 -49 -521 -102 -709 -120 -609 -57 -1040 150 -1229 590 -54 126
-62 174 -61 355 0 140 4 173 27 262 15 56 27 104 27 107 0 18 -23 0 -52 -41z
m3051 -1254 c23 -29 41 -57 41 -63 0 -6 7 -56 15 -110 20 -135 19 -248 -2
-318 -10 -32 -23 -58 -30 -58 -13 0 -104 157 -122 211 -6 20 -12 96 -13 170
-2 121 0 138 20 177 12 23 29 42 36 42 8 0 33 -23 55 -51z m366 21 c90 -21
113 -120 53 -232 -55 -103 -196 -203 -257 -182 -34 12 -61 85 -68 189 -6 92 3
118 60 173 57 55 127 72 212 52z m-726 -129 c107 -54 199 -188 204 -294 l2
-52 -33 -3 c-41 -4 -134 24 -182 54 -37 23 -96 82 -124 124 -22 33 -20 102 4
149 30 60 47 63 129 22z m-105 -330 c55 -27 146 -66 201 -86 55 -20 108 -41
118 -46 22 -12 22 -53 0 -75 -28 -27 -113 -63 -168 -69 -57 -8 -192 10 -243
31 -77 32 -192 176 -177 223 12 40 61 62 154 70 7 0 59 -21 115 -48z"/>
<path d="M17900 11763 c-52 -1 -156 -7 -230 -13 -301 -23 -500 -41 -585 -50
-49 -6 -160 -17 -245 -26 -430 -44 -981 -141 -1430 -254 -19 -5 -84 -20 -145
-34 -610 -140 -831 -200 -1162 -315 -198 -68 -411 -150 -511 -197 -29 -13 -55
-24 -57 -24 -3 0 -42 -17 -88 -38 -45 -21 -111 -52 -147 -68 -183 -81 -552
-290 -563 -318 -4 -11 11 -25 51 -47 230 -128 363 -239 513 -429 124 -157 193
-307 245 -530 19 -80 28 -93 59 -84 29 9 262 95 470 174 414 157 787 261 1550
434 66 15 147 34 180 41 92 22 408 81 525 100 58 9 132 20 165 25 33 6 107 17
165 25 58 9 132 20 165 25 105 17 350 45 655 75 85 8 198 20 250 25 406 43
1169 52 1650 20 290 -19 758 -68 1040 -109 239 -35 357 -53 580 -91 102 -17
241 -40 310 -51 374 -62 866 -184 1115 -277 359 -134 571 -260 785 -468 l95
-92 110 -5 c61 -3 182 -11 270 -18 226 -16 594 -6 752 21 239 40 404 91 579
178 199 98 368 216 505 352 160 158 245 272 339 454 129 251 184 471 182 736
-2 306 -68 515 -246 774 -69 102 -79 98 -48 -22 46 -172 52 -371 16 -522 -18
-78 -77 -191 -143 -274 -116 -146 -309 -265 -526 -326 -199 -55 -525 -52 -870
9 -144 26 -511 129 -755 211 -351 119 -609 210 -755 265 -255 96 -808 290
-895 314 -25 7 -58 16 -75 21 -16 4 -55 15 -85 24 -209 59 -561 132 -855 176
-33 5 -100 16 -150 24 -280 47 -558 83 -810 106 -55 5 -163 17 -240 25 -137
15 -312 26 -750 45 -195 8 -692 10 -955 3z m-801 -299 c12 -15 21 -35 21 -46
0 -26 -44 -68 -71 -68 -33 0 -69 38 -69 73 0 66 78 93 119 41z m308 18 c6 -4
14 -49 18 -101 l8 -93 51 6 c62 7 72 1 80 -44 9 -49 -3 -60 -69 -67 l-57 -6 5
-61 c4 -34 9 -113 13 -176 9 -150 29 -190 98 -190 31 0 48 -29 44 -73 -3 -31
-5 -32 -55 -35 -96 -6 -173 55 -192 150 -5 29 -13 103 -16 163 -3 61 -8 134
-11 163 -5 49 -7 52 -34 52 -32 0 -50 23 -50 62 0 31 18 48 48 48 l25 0 -6 89
c-6 74 -4 93 9 105 16 17 70 21 91 8z m669 -201 c182 -81 252 -301 151 -473
-91 -156 -311 -203 -459 -99 -102 71 -143 151 -143 276 1 149 103 278 248 316
49 12 152 2 203 -20z m432 7 c7 -7 12 -28 12 -47 0 -32 1 -33 18 -18 62 57
204 76 294 40 66 -26 128 -80 163 -144 l30 -54 -3 -190 c-1 -104 -6 -206 -10
-225 -7 -33 -10 -35 -54 -38 -63 -4 -67 7 -57 138 14 181 11 256 -10 298 -55
107 -184 147 -285 88 -89 -52 -108 -105 -121 -339 -9 -147 -16 -161 -73 -151
-21 4 -41 9 -46 12 -5 3 -6 52 -2 111 20 311 36 513 41 521 9 14 89 12 103 -2z
m-1392 -39 c8 -14 65 -575 62 -609 -3 -20 -10 -26 -43 -31 -27 -5 -44 -3 -54
6 -9 9 -23 107 -43 316 -29 291 -30 303 -12 316 22 16 80 17 90 2z m2469 -73
c28 -13 65 -37 84 -54 18 -18 35 -32 37 -32 2 0 7 15 12 32 9 36 26 43 78 33
43 -8 43 -13 10 -236 -14 -90 -32 -213 -41 -274 -9 -60 -22 -116 -28 -123 -7
-9 -23 -12 -45 -8 -50 8 -64 23 -56 63 l7 35 -54 -28 c-152 -77 -339 -12 -416
144 -24 50 -28 68 -28 147 1 78 4 97 28 145 34 67 68 103 126 138 95 56 189
61 286 18z m-2879 -5 c59 -26 128 -93 154 -149 22 -46 48 -167 70 -332 11 -77
10 -85 -6 -97 -23 -17 -78 -17 -92 0 -5 6 -19 77 -31 157 -27 182 -40 219 -98
270 -95 83 -239 62 -304 -44 -39 -63 -42 -98 -19 -240 33 -205 33 -206 20
-221 -18 -22 -97 -20 -104 3 -3 9 -26 148 -51 307 l-44 290 20 18 c24 20 88
23 93 5 3 -7 7 -25 10 -41 l6 -27 35 35 c90 89 228 116 341 66z m4338 -32 c54
-43 84 -134 65 -198 -17 -59 -49 -85 -92 -77 -79 15 -117 72 -117 175 0 65 2
71 31 95 37 31 77 33 113 5z m342 -79 c25 -10 26 -13 20 -56 -7 -55 -37 -112
-73 -138 -37 -28 -196 -30 -201 -3 -6 29 47 154 72 170 44 29 139 43 182 27z
m-5461 -25 c105 -31 190 -120 221 -232 61 -227 -145 -450 -373 -403 -76 16
-125 42 -174 91 -95 95 -121 243 -66 364 72 156 228 227 392 180z m-875 -13
c50 -25 80 -74 80 -133 0 -42 3 -49 20 -49 43 0 131 -43 174 -84 67 -66 89
-115 94 -218 4 -76 1 -92 -21 -141 -32 -69 -96 -140 -152 -167 -80 -39 -296
-101 -311 -90 -7 6 -38 91 -69 188 -31 97 -85 269 -121 380 -36 112 -64 213
-62 225 3 19 23 29 128 64 139 46 189 51 240 25z m5892 -183 c42 -21 79 -43
82 -48 10 -15 -41 -68 -87 -90 -52 -25 -85 -26 -135 -6 -51 22 -81 52 -88 92
-20 109 72 130 228 52z m366 -78 c46 -24 95 -76 112 -118 11 -30 10 -36 -14
-68 -15 -19 -34 -35 -43 -35 -32 0 -168 52 -192 73 -45 42 -78 149 -48 160 33
14 149 6 185 -12z m-227 -102 c31 -49 36 -84 21 -140 -20 -76 -60 -109 -117
-95 -49 12 -80 137 -50 200 19 39 80 88 104 84 8 -2 27 -24 42 -49z m1314 25
c67 -19 111 -62 130 -128 32 -108 9 -204 -58 -241 -32 -17 -40 -17 -98 -5 -88
19 -193 73 -227 117 -24 33 -27 45 -27 114 0 84 10 103 70 140 38 24 136 25
210 3z m485 1 c42 -22 53 -47 40 -95 -14 -51 -149 -314 -200 -390 -39 -58
-101 -107 -120 -95 -18 11 -11 113 14 213 14 53 29 124 35 157 16 86 55 161
104 196 45 32 83 37 127 14z m-8660 -325 c325 -334 330 -339 330 -363 0 -18
-53 -47 -86 -47 -9 0 -46 32 -83 71 l-66 70 -140 -62 c-77 -34 -146 -66 -152
-71 -7 -6 -11 -20 -8 -32 2 -11 7 -56 10 -98 l7 -77 -46 -23 c-71 -34 -71 -34
-95 262 -12 140 -28 335 -37 433 -8 97 -12 182 -9 187 7 11 63 38 81 39 7 1
139 -130 294 -289z m8875 65 c22 -13 54 -32 72 -41 52 -28 48 -47 -23 -114
-36 -33 -81 -67 -101 -75 -55 -23 -153 -43 -203 -41 -43 1 -45 2 -43 30 1 16
24 73 50 125 40 80 55 100 88 118 53 30 109 29 160 -2z m231 -276 c57 -59 30
-169 -54 -226 -73 -49 -191 -72 -283 -54 -66 12 -233 81 -222 91 4 4 45 19 89
34 119 37 302 122 350 162 41 33 84 31 120 -7z"/>
<path d="M17865 11167 c-27 -13 -58 -33 -67 -43 -28 -31 -58 -106 -58 -145 0
-54 48 -139 98 -174 38 -26 53 -30 110 -30 58 0 73 4 112 30 129 87 126 274
-6 351 -64 38 -126 41 -189 11z"/>
<path d="M17720 10883 c0 -36 116 -142 155 -143 6 0 -14 14 -43 31 -35 20 -63
46 -83 76 -16 26 -29 42 -29 36z"/>
<path d="M17898 10733 c7 -3 16 -2 19 1 4 3 -2 6 -13 5 -11 0 -14 -3 -6 -6z"/>
<path d="M19370 11058 c-67 -36 -103 -94 -107 -171 -5 -82 24 -139 91 -184 41
-28 57 -33 108 -33 207 0 288 243 125 374 -32 26 -48 31 -105 34 -56 3 -74 0
-112 -20z"/>
<path d="M19260 10736 c0 -2 8 -10 18 -17 15 -13 16 -12 3 4 -13 16 -21 21
-21 13z"/>
<path d="M19301 10687 c2 -1 13 -9 24 -17 19 -14 19 -14 6 3 -7 9 -18 17 -24
17 -6 0 -8 -1 -6 -3z"/>
<path d="M15750 10915 c-125 -57 -165 -210 -83 -318 106 -138 314 -96 364 74
25 81 -20 186 -99 232 -44 26 -137 32 -182 12z"/>
<path d="M15635 10571 c55 -69 131 -106 202 -98 l38 4 -41 1 c-64 3 -125 29
-174 75 -24 23 -36 31 -25 18z"/>
<path d="M14968 11003 c6 -2 18 -2 25 0 6 3 1 5 -13 5 -14 0 -19 -2 -12 -5z"/>
<path d="M14890 10906 c-36 -13 -65 -27 -64 -32 2 -35 18 -84 28 -84 18 0 139
41 154 53 19 15 15 65 -7 77 -26 13 -35 12 -111 -14z"/>
<path d="M15098 10803 c12 -2 32 -2 45 0 12 2 2 4 -23 4 -25 0 -35 -2 -22 -4z"/>
<path d="M15201 10786 c10 -9 69 -36 69 -32 0 6 -55 36 -66 36 -4 0 -5 -2 -3
-4z"/>
<path d="M15300 10725 c13 -14 26 -25 28 -25 3 0 -5 11 -18 25 -13 14 -26 25
-28 25 -3 0 5 -11 18 -25z"/>
<path d="M14980 10714 c-47 -14 -88 -28 -92 -32 -6 -7 111 -384 124 -397 3 -4
46 6 95 22 70 22 97 36 130 69 118 118 61 319 -99 354 -63 13 -58 13 -158 -16z"/>
<path d="M13960 10566 c0 -2 8 -10 18 -17 15 -13 16 -12 3 4 -13 16 -21 21
-21 13z"/>
<path d="M14100 10428 c57 -60 106 -108 107 -108 8 0 -5 13 -104 110 l-108
105 105 -107z"/>
<path d="M13974 10415 c3 -16 11 -99 17 -182 7 -84 15 -153 18 -153 16 0 205
88 208 97 2 5 -53 68 -122 139 -109 112 -125 125 -121 99z"/>
<path d="M14300 10221 c0 -6 4 -13 10 -16 6 -3 7 1 4 9 -7 18 -14 21 -14 7z"/>
<path d="M14260 10150 c-9 -6 -10 -10 -3 -10 6 0 15 5 18 10 8 12 4 12 -15 0z"/>
<path d="M14200 10125 c-14 -8 -20 -14 -15 -14 6 0 21 6 35 14 14 8 21 14 15
14 -5 0 -21 -6 -35 -14z"/>
<path d="M14425 10090 c10 -11 20 -20 23 -20 3 0 -3 9 -13 20 -10 11 -20 20
-23 20 -3 0 3 -9 13 -20z"/>
<path d="M14120 10090 c-8 -5 -10 -10 -5 -10 6 0 17 5 25 10 8 5 11 10 5 10
-5 0 -17 -5 -25 -10z"/>
<path d="M14475 10040 c10 -11 20 -20 23 -20 3 0 -3 9 -13 20 -10 11 -20 20
-23 20 -3 0 3 -9 13 -20z"/>
<path d="M23365 11200 c-8 -12 20 -24 35 -15 6 3 8 11 5 16 -8 12 -32 12 -40
-1z"/>
<path d="M6913 9900 c-105 -9 -255 -40 -268 -56 -5 -6 -36 -14 -68 -17 -74 -7
-109 -29 -101 -61 5 -19 0 -25 -24 -34 -17 -6 -32 -8 -35 -6 -2 2 -39 11 -83
19 -90 17 -173 19 -212 4 l-27 -11 28 -24 c15 -13 36 -24 46 -24 10 0 24 -7
31 -15 10 -13 10 -19 -5 -35 -10 -11 -24 -20 -30 -20 -7 0 -47 -34 -90 -75
-80 -77 -109 -90 -120 -55 -9 30 1 54 41 89 42 39 40 55 -10 59 -107 9 -169
-119 -99 -206 45 -56 109 -95 157 -96 59 -1 145 46 211 115 55 58 63 73 45 84
-11 7 -67 -20 -96 -46 -11 -11 -35 -24 -52 -29 -27 -7 -32 -6 -32 8 0 9 4 22
8 28 15 22 160 104 183 104 14 0 40 -11 59 -25 19 -14 46 -25 61 -25 14 0 32
-6 38 -14 16 -19 -11 -46 -46 -46 -18 0 -43 -18 -88 -65 -35 -36 -68 -65 -74
-65 -18 0 -30 -33 -20 -58 19 -50 -31 -60 -56 -12 -17 33 -32 37 -60 16 -25
-18 -14 -41 34 -66 47 -24 69 -25 95 -5 11 8 32 15 48 15 32 0 49 15 107 93
23 31 50 61 60 66 10 6 26 26 35 46 12 24 23 35 39 35 26 0 99 -40 104 -57 3
-7 -38 -43 -89 -81 -51 -38 -113 -90 -138 -116 -38 -39 -49 -45 -72 -41 -21 5
-28 2 -33 -15 -5 -16 1 -30 22 -52 45 -48 61 -53 75 -23 l11 25 24 -22 24 -23
51 55 c106 116 141 148 189 175 28 15 56 24 64 21 24 -9 17 -36 -10 -46 -29
-11 -245 -218 -245 -234 0 -19 60 -76 80 -76 23 0 101 61 160 126 80 88 150
148 161 137 19 -19 -9 -58 -120 -170 -91 -92 -120 -115 -166 -132 -106 -40
-119 -35 -299 98 -51 38 -110 70 -165 91 -251 94 -365 195 -416 365 -14 48
-32 54 -89 29 -117 -51 -277 -187 -365 -310 -107 -151 -156 -266 -197 -463
-24 -116 -34 -306 -15 -299 5 2 43 34 85 72 94 84 108 95 171 128 208 107 639
154 1057 114 127 -13 160 -20 240 -52 213 -84 331 -144 438 -222 51 -37 125
-90 164 -119 108 -79 142 -96 167 -82 18 9 20 17 14 56 -4 25 -11 53 -16 62
-13 24 -57 197 -74 295 -15 90 -9 136 19 136 21 0 32 -20 50 -97 9 -39 27
-104 40 -145 13 -40 31 -100 41 -133 9 -33 21 -71 25 -85 5 -14 11 -41 14 -61
9 -54 43 -68 106 -46 26 9 58 17 71 17 12 0 30 6 38 14 9 7 48 16 86 20 104 9
116 -4 200 -210 20 -49 43 -103 50 -119 8 -17 18 -50 23 -73 5 -22 23 -60 40
-83 24 -32 30 -48 25 -70 -7 -35 19 -49 51 -29 11 8 75 42 141 75 170 87 226
122 257 158 22 27 30 30 45 21 45 -28 6 -95 -83 -143 -22 -12 -61 -35 -89 -51
-27 -16 -67 -37 -88 -46 -22 -10 -40 -26 -43 -39 -5 -20 -8 -21 -44 -12 -34
10 -43 8 -78 -16 -46 -30 -57 -53 -43 -91 12 -30 27 -33 58 -11 22 15 23 14
47 -33 20 -39 34 -53 66 -66 23 -9 45 -14 50 -11 8 5 45 -35 53 -58 7 -22 85
12 130 57 49 50 109 96 125 96 16 0 25 -39 12 -54 -6 -8 -18 -12 -28 -10 -19
5 -82 -30 -82 -46 0 -13 77 -13 85 0 11 18 22 11 39 -24 24 -52 20 -97 -13
-142 -37 -51 -87 -97 -98 -91 -4 2 -18 1 -30 -4 -34 -13 -30 -54 8 -90 59 -55
113 -46 101 17 -3 17 2 31 17 45 27 25 53 18 51 -13 -4 -42 0 -47 40 -58 48
-13 76 -6 90 21 24 43 69 10 70 -51 0 -46 -41 -193 -69 -248 -20 -40 -21 -46
-7 -67 17 -25 22 -25 111 0 28 8 88 23 135 34 47 12 134 32 193 46 60 14 135
28 168 32 51 5 59 4 59 -11 0 -24 -57 -74 -110 -98 -43 -19 -198 -54 -345 -78
-38 -6 -100 -21 -137 -32 -98 -29 -113 -23 -131 58 -9 36 -13 72 -11 79 3 7
-2 25 -12 40 -17 26 -17 27 8 48 32 29 56 120 37 143 -18 22 -83 11 -120 -21
-28 -23 -30 -23 -71 -7 -51 19 -114 60 -144 93 -12 13 -36 51 -54 84 -18 33
-55 84 -81 113 -36 39 -49 61 -51 90 -3 34 -8 40 -59 67 -125 68 -136 83 -199
275 -63 195 -172 471 -205 519 -16 25 -38 47 -48 49 -22 4 -123 -42 -153 -69
-12 -11 -45 -26 -74 -34 -66 -17 -75 -26 -75 -75 0 -52 -19 -58 -42 -12 -18
38 -76 82 -183 142 -30 17 -62 35 -70 40 -289 185 -434 252 -665 309 -320 79
-746 94 -995 34 -89 -21 -187 -59 -235 -90 -111 -73 -225 -217 -225 -284 0
-116 166 -282 338 -340 85 -29 250 -32 325 -6 165 58 283 178 340 346 15 44
34 180 37 259 0 22 73 13 166 -19 144 -51 157 -56 250 -94 130 -54 465 -220
569 -283 133 -80 399 -271 485 -348 153 -136 411 -396 535 -538 33 -38 67 -76
75 -85 9 -9 47 -52 85 -96 39 -44 91 -102 116 -130 102 -111 145 -161 263
-305 172 -209 624 -645 801 -772 28 -20 93 -71 145 -113 90 -72 277 -195 401
-262 157 -86 508 -227 752 -303 38 -11 146 -55 240 -97 300 -132 517 -210 867
-309 30 -9 75 -22 100 -29 25 -8 81 -21 125 -30 44 -8 100 -20 125 -25 25 -5
126 -23 225 -40 99 -17 187 -33 195 -35 32 -9 287 -45 540 -77 l265 -33 685 0
c481 0 722 4 810 13 69 7 175 17 235 23 237 22 597 82 808 135 31 8 84 21 116
29 161 40 488 157 911 328 102 41 259 104 350 140 91 36 233 92 315 125 83 33
206 82 275 108 245 93 613 296 790 436 19 15 80 62 135 105 307 238 486 405
650 608 49 61 130 157 180 215 50 58 138 161 195 230 58 69 107 127 110 130 3
3 35 41 72 85 36 44 201 213 365 376 347 344 353 348 813 631 157 96 265 144
455 201 297 88 376 103 394 70 5 -10 12 -56 16 -103 19 -229 124 -384 310
-457 63 -25 82 -28 190 -28 145 1 219 21 332 92 98 61 193 183 193 249 0 71
-108 195 -241 277 -162 100 -334 137 -643 137 -329 0 -612 -48 -836 -140 -148
-61 -328 -156 -400 -210 -62 -48 -171 -120 -181 -120 -37 0 50 159 124 226 56
51 70 60 262 159 203 104 363 154 640 196 175 27 558 14 779 -27 147 -27 341
-121 469 -227 26 -22 51 -36 55 -32 4 4 7 70 7 148 -1 125 -4 154 -29 237 -48
167 -118 290 -230 411 -88 94 -138 131 -278 204 -80 41 -114 45 -124 13 -22
-73 -167 -196 -419 -356 -198 -125 -234 -141 -354 -158 -140 -20 -205 -8 -390
72 -18 8 -36 12 -39 10 -3 -3 3 -24 13 -46 21 -46 17 -106 -10 -164 -25 -53
-55 -70 -97 -57 -96 29 -271 52 -305 40 -15 -5 -23 -17 -23 -31 0 -23 -34
-164 -65 -268 -9 -30 -20 -68 -24 -85 -5 -16 -18 -61 -30 -100 -44 -146 -51
-172 -51 -193 0 -26 -15 -29 -23 -4 -3 9 -14 29 -23 44 -17 26 -17 31 25 200
54 217 96 349 128 410 24 44 25 49 12 93 -15 50 -36 69 -66 58 -10 -4 -63 -34
-118 -66 -55 -33 -134 -77 -175 -100 -41 -22 -86 -50 -100 -62 -50 -44 -108
-62 -157 -49 -68 19 40 92 125 86 l44 -4 -16 31 c-16 30 -16 30 18 56 104 79
365 185 456 185 17 0 46 -13 72 -34 45 -34 185 -109 225 -121 31 -9 78 18 92
53 9 22 10 58 2 148 -14 157 -14 154 9 154 14 0 20 -9 25 -37 8 -55 37 -107
60 -111 31 -5 95 -34 95 -44 0 -9 34 -11 43 -2 4 4 -9 28 -27 53 -44 60 -106
178 -106 202 0 41 31 15 69 -58 69 -132 141 -192 157 -130 12 49 -21 220 -60
309 -10 21 27 43 51 30 19 -11 53 -96 53 -136 0 -26 19 -121 41 -207 15 -59
61 -62 172 -12 31 15 57 32 57 39 0 7 -15 23 -32 35 -55 37 -182 132 -195 145
-19 18 -16 22 15 26 23 3 27 7 24 31 -3 25 -1 27 16 18 11 -6 27 -23 37 -38
10 -15 28 -36 39 -46 70 -62 119 -113 127 -133 11 -31 27 -30 68 4 l32 27 -35
50 c-36 49 -46 85 -25 85 6 0 37 -25 69 -56 l59 -56 48 23 c63 30 113 68 113
85 0 14 -68 49 -145 74 -50 17 -108 59 -146 106 -51 64 -39 70 45 19 32 -19
61 -35 64 -35 3 0 13 -6 21 -13 22 -19 189 -87 213 -87 11 0 22 8 25 20 3 11
14 20 24 20 22 0 86 38 112 67 40 45 -12 70 -138 68 -38 -1 -78 -5 -87 -9 -13
-6 -39 5 -90 37 -139 85 -216 117 -290 117 -96 0 -280 -75 -628 -257 -52 -27
-131 -62 -175 -78 -44 -15 -84 -33 -90 -40 -14 -16 -71 -45 -90 -45 -8 0 -15
-4 -15 -10 0 -5 -8 -10 -19 -10 -10 0 -24 -7 -31 -15 -15 -18 -56 -20 -64 -2
-3 6 -4 3 -1 -8 4 -17 -2 -24 -28 -33 -18 -7 -45 -12 -60 -12 -19 0 -25 -4
-21 -15 8 -20 -39 -21 -56 0 -12 14 -5 55 9 55 4 0 6 13 3 28 -3 25 0 29 32
39 21 7 38 7 42 2 3 -5 10 -9 16 -9 6 0 8 3 5 7 -7 6 45 29 92 40 41 10 111
76 111 105 0 10 6 18 13 18 8 0 27 11 43 25 29 25 153 113 180 128 8 4 22 11
32 16 9 6 48 28 86 50 38 23 72 41 76 41 17 0 103 91 94 99 -10 9 -68 24 -157
42 -111 21 -297 9 -419 -26 -242 -70 -696 -299 -908 -458 -118 -89 -389 -348
-531 -507 -46 -52 -86 -97 -89 -100 -3 -3 -43 -50 -89 -105 -240 -288 -462
-519 -686 -711 -44 -37 -123 -107 -175 -154 -85 -77 -248 -216 -415 -355 -33
-27 -62 -52 -65 -55 -21 -23 -198 -167 -255 -207 -187 -131 -538 -319 -866
-462 -24 -10 -80 -36 -124 -56 -108 -51 -403 -160 -605 -224 -91 -29 -239 -77
-330 -106 -91 -29 -169 -50 -173 -46 -16 16 -68 367 -101 683 l-4 36 36 -15
c103 -43 222 44 282 205 106 283 62 688 -89 815 -97 81 -181 23 -241 -168 -13
-41 -26 -75 -29 -75 -3 0 -6 54 -6 119 -1 83 -5 124 -14 135 -21 25 -120 69
-153 68 -17 0 -41 -10 -52 -22 -27 -27 -32 -137 -17 -379 l10 -171 -30 -88
c-41 -117 -87 -208 -125 -249 -65 -69 -88 -33 -88 147 0 69 3 138 7 153 6 23
3 33 -21 55 -15 15 -36 32 -47 38 -18 10 -17 13 18 49 48 49 64 104 48 165
-25 95 -93 145 -196 145 -85 -1 -161 -38 -239 -118 -98 -100 -155 -225 -195
-427 -17 -84 -34 -130 -86 -235 -63 -127 -133 -225 -160 -225 -8 0 -17 15 -21
36 -11 58 3 324 25 499 12 88 21 163 21 166 0 4 30 17 66 29 76 26 144 83 144
121 0 44 -15 54 -92 59 -71 5 -73 6 -70 30 5 39 60 256 88 346 24 77 25 84 10
112 -28 55 -118 109 -158 96 -38 -12 -76 -127 -149 -447 l-22 -98 -39 6 c-62
11 -78 -10 -78 -102 0 -68 2 -77 28 -102 15 -15 32 -30 39 -32 8 -3 6 -48 -8
-169 -25 -223 -25 -424 0 -518 36 -139 102 -212 192 -212 78 0 156 68 237 206
20 35 39 64 42 64 3 0 18 -25 34 -56 39 -74 93 -114 153 -114 82 0 143 47 205
157 28 49 48 67 48 43 0 -16 71 -90 101 -106 33 -17 96 -18 136 -3 45 17 122
99 165 177 22 40 42 71 45 69 2 -3 13 -81 24 -173 24 -210 61 -457 94 -638 14
-75 23 -141 20 -145 -2 -5 -22 -11 -42 -15 -21 -3 -74 -13 -119 -21 -420 -75
-980 -85 -1554 -30 -324 32 -480 58 -730 122 -96 24 -262 67 -369 94 -504 128
-842 246 -1058 370 -45 26 -133 73 -195 104 -386 196 -510 268 -659 376 -59
43 -138 98 -176 122 -80 51 -228 163 -433 326 -203 161 -732 665 -811 772
-272 367 -339 444 -514 591 -49 41 -141 124 -204 184 -183 175 -234 208 -456
288 -119 44 -110 40 -257 109 -64 31 -169 90 -232 132 -127 83 -217 129 -298
151 -56 15 -194 16 -335 4z m15032 -330 c10 -11 13 -20 7 -20 -6 0 -14 5 -17
10 -11 17 -25 0 -25 -29 0 -19 14 -44 40 -74 56 -63 55 -86 -1 -46 -66 47
-119 146 -92 172 14 15 70 6 88 -13z m-14760 -39 c3 -5 1 -12 -5 -16 -5 -3
-10 1 -10 9 0 18 6 21 15 7z m13418 -15 c4 -10 1 -13 -9 -9 -15 6 -19 23 -5
23 5 0 11 -7 14 -14z m-91 -48 c-9 -9 -15 -9 -24 0 -9 9 -7 12 12 12 19 0 21
-3 12 -12z m-47 -38 c18 -8 17 -9 -7 -9 -16 -1 -28 4 -28 9 0 12 8 12 35 0z
m-13232 -20 c3 -11 1 -18 -4 -14 -5 3 -9 12 -9 20 0 20 7 17 13 -6z m27 -46
c0 -8 -4 -12 -10 -9 -5 3 -10 10 -10 16 0 5 5 9 10 9 6 0 10 -7 10 -16z m-920
-23 c0 -21 -13 -41 -26 -41 -15 0 -17 10 -8 34 7 17 34 22 34 7z m985 -49 c-3
-3 -11 0 -18 7 -9 10 -8 11 6 5 10 -3 15 -9 12 -12z m13871 -172 c8 -58 19
-124 25 -148 5 -24 6 -50 1 -58 -17 -30 -49 74 -72 230 -10 64 -9 80 2 87 21
13 27 -2 44 -111z m-14126 79 c11 -19 8 -126 -6 -229 -7 -54 6 -66 54 -52 75
23 207 42 291 42 81 0 88 -2 194 -52 61 -29 121 -63 132 -74 15 -15 41 -24 86
-29 83 -9 99 -18 99 -56 0 -42 -30 -53 -124 -44 -75 7 -106 21 -106 50 0 19
-14 26 -63 32 -25 3 -59 17 -87 37 -61 45 -99 56 -147 45 -21 -5 -56 -9 -78
-9 -22 0 -87 -9 -145 -20 -118 -23 -141 -21 -163 14 -14 21 -15 46 -8 183 4
88 11 165 15 171 12 19 44 14 56 -9z m13530 -44 c0 -8 5 -15 11 -15 5 0 7 -4
4 -10 -11 -18 -45 -11 -45 8 0 10 3 22 7 25 11 12 23 8 23 -8z m-12306 -20 c3
-8 1 -15 -4 -15 -6 0 -10 7 -10 15 0 8 2 15 4 15 2 0 6 -7 10 -15z m56 -68 c0
-7 -8 -17 -19 -24 -17 -11 -18 -10 -7 13 12 26 26 32 26 11z m-401 -119 c1 -5
-3 -8 -8 -8 -11 0 -21 37 -13 45 6 5 20 -19 21 -37z m231 -139 c0 -5 -4 -9
-10 -9 -5 0 -10 7 -10 16 0 8 5 12 10 9 6 -3 10 -10 10 -16z m337 15 c-3 -3
-12 -4 -19 -1 -8 3 -5 6 6 6 11 1 17 -2 13 -5z m-257 -59 c22 0 25 -4 25 -37
l0 -37 -30 27 c-16 15 -33 32 -37 37 -12 16 -9 27 5 18 6 -4 23 -8 37 -8z
m11910 -159 c0 -7 -10 -24 -22 -38 -13 -13 -43 -48 -68 -78 -25 -30 -56 -66
-68 -80 -44 -47 -122 -163 -122 -182 0 -10 -6 -21 -14 -24 -15 -6 -72 30 -79
51 -8 18 182 224 302 327 53 45 71 51 71 24z m-12014 -25 c58 -42 361 -355
369 -380 11 -36 0 -35 -55 7 -35 26 -68 42 -97 47 -37 5 -47 12 -68 45 -14 22
-25 42 -25 46 0 21 -127 154 -147 154 -9 0 -44 -25 -78 -55 -72 -63 -105 -71
-105 -26 0 22 6 31 23 37 32 9 57 34 57 56 0 23 58 98 75 98 7 0 30 -13 51
-29z m12231 -372 c9 -9 4 -18 -19 -38 -42 -35 -84 -131 -115 -265 -27 -114
-29 -135 -18 -198 6 -28 1 -48 -20 -90 -46 -93 -101 -135 -160 -124 -39 8 -42
4 -55 -63 -15 -78 -182 -351 -274 -449 -62 -66 -93 -83 -176 -97 l-65 -11 -6
-45 c-15 -101 -77 -239 -108 -239 -9 0 -33 20 -54 44 -34 42 -141 106 -175
106 -30 0 -262 84 -357 130 -101 49 -142 80 -130 99 14 24 53 15 260 -62 39
-14 101 -38 139 -52 38 -14 74 -29 80 -33 6 -5 47 -21 91 -36 44 -15 88 -32
97 -37 29 -15 67 -10 78 10 5 11 10 50 10 86 0 63 -2 70 -51 142 -59 88 -73
119 -58 129 6 3 37 -23 70 -58 60 -68 100 -92 141 -86 26 3 28 24 9 113 -6 28
-16 86 -22 130 l-12 80 -93 95 c-99 103 -134 154 -134 200 0 56 23 48 62 -21
15 -25 46 -62 70 -81 24 -20 59 -50 78 -67 19 -17 43 -31 52 -31 19 0 35 41
23 59 -3 6 -2 11 3 11 6 0 12 -6 15 -14 4 -9 14 -12 27 -9 14 4 30 -3 48 -20
15 -13 52 -41 84 -61 31 -19 67 -49 80 -66 15 -19 30 -29 39 -25 8 3 30 36 48
72 l33 67 -24 17 c-13 10 -41 27 -63 38 -79 40 -115 68 -231 176 -142 132
-184 174 -184 184 0 4 6 16 14 26 13 18 17 15 75 -42 33 -33 101 -91 150 -129
76 -57 87 -70 74 -79 -14 -10 -11 -16 22 -41 21 -16 52 -41 70 -56 45 -38 88
-38 105 1 15 38 49 68 80 73 26 3 79 70 80 99 0 25 -39 46 -100 54 -30 3 -68
11 -85 16 -16 4 -55 16 -85 25 -30 9 -104 43 -164 76 -60 32 -117 58 -127 58
-24 0 -32 15 -14 30 19 16 58 3 218 -76 71 -35 145 -66 165 -69 20 -4 70 -15
110 -25 40 -10 82 -16 92 -13 27 7 49 61 75 187 27 132 43 171 85 211 18 17
42 40 54 52 23 25 55 30 73 12z m183 -29 c47 -18 127 -73 112 -78 -7 -2 -40
10 -74 26 -64 30 -110 47 -161 57 -15 3 -26 9 -23 13 6 10 101 -2 146 -18z
m-860 -48 c0 -30 47 -89 112 -139 35 -26 70 -55 79 -63 8 -8 32 -30 52 -48 36
-31 46 -55 29 -66 -12 -7 -209 137 -275 201 -49 48 -57 61 -52 83 10 41 55 67
55 32z m-11957 -163 c2 -129 -3 -152 -30 -142 -14 5 -15 22 -10 134 3 71 9
134 12 140 17 27 26 -16 28 -132z m12741 126 c8 -8 17 -37 21 -63 3 -26 10
-69 14 -97 9 -50 0 -95 -19 -95 -16 0 -38 41 -50 95 -7 28 -17 68 -23 90 -13
44 -11 66 6 77 18 12 34 9 51 -7z m-11959 -26 c21 -34 -26 -76 -175 -156 -82
-44 -117 -54 -130 -39 -17 22 -3 40 53 69 53 27 135 75 197 115 40 25 46 26
55 11z m225 -238 c0 -18 -106 -111 -125 -111 -4 0 -20 -9 -35 -20 -34 -24
-185 -100 -200 -100 -10 0 -40 52 -40 70 0 7 8 9 23 4 12 -4 34 -7 49 -6 36 3
152 57 211 98 26 19 51 34 55 34 5 0 14 11 20 25 14 30 42 33 42 6z m80 -76
c14 -16 6 -35 -16 -35 -8 0 -14 10 -14 25 0 28 12 32 30 10z m5882 -97 c7
-168 -37 -400 -104 -549 -44 -98 -53 -94 -67 31 -10 100 3 245 33 364 28 109
99 266 120 266 11 0 15 -26 18 -112z m884 -25 c18 -133 19 -381 2 -442 -18
-60 -43 -74 -69 -41 -41 52 -47 58 -59 62 -19 6 34 359 76 508 21 71 30 55 50
-87z m3788 104 c11 -17 29 -50 41 -72 12 -22 38 -65 57 -95 73 -115 54 -123
-31 -12 -34 42 -77 96 -97 119 -28 33 -35 48 -30 68 9 35 37 31 60 -8z m471
-96 c9 -16 -37 -41 -75 -41 l-35 0 30 25 c31 25 69 33 80 16z m-10935 -57 c0
-29 -6 -51 -17 -62 -15 -16 -16 -14 -10 32 4 27 7 55 7 62 0 8 5 14 10 14 6 0
10 -21 10 -46z m830 -4 c0 -5 -2 -10 -4 -10 -3 0 -8 5 -11 10 -3 6 -1 10 4 10
6 0 11 -4 11 -10z m-616 -56 c6 -17 -8 -18 -35 -4 -10 6 -19 20 -19 31 0 18 1
19 24 4 13 -9 27 -23 30 -31z m676 12 c0 -3 -4 -8 -10 -11 -5 -3 -10 -1 -10 4
0 6 5 11 10 11 6 0 10 -2 10 -4z m144 -103 c-6 -24 -24 -32 -24 -12 0 8 -4 9
-13 0 -15 -12 -27 -5 -27 14 0 6 10 11 21 11 12 -1 24 4 26 10 5 16 -33 24
-46 11 -6 -6 -6 0 1 16 l13 26 27 -27 c20 -19 26 -33 22 -49z m-86 49 c2 -7
-6 -12 -17 -12 -21 0 -27 11 -14 24 9 9 26 2 31 -12z m9252 -25 c0 -22 -24
-65 -44 -79 -18 -13 -66 -9 -66 5 0 19 88 109 100 102 5 -3 10 -16 10 -28z
m-9115 -27 c3 -5 1 -10 -4 -10 -6 0 -11 5 -11 10 0 6 2 10 4 10 3 0 8 -4 11
-10z m32 -66 c10 3 25 1 33 -4 11 -7 2 -10 -32 -10 -47 0 -65 11 -52 32 5 8
11 6 20 -6 7 -11 20 -16 31 -12z m174 -181 c-9 -16 -10 -14 -11 12 0 21 3 26
11 18 8 -8 8 -16 0 -30z m72 -38 c-6 -18 -19 -19 -29 -4 -7 12 15 31 28 23 4
-3 5 -11 1 -19z m-678 -55 c41 -27 76 -50 79 -50 6 0 240 -157 291 -195 16
-12 57 -37 90 -55 86 -47 113 -67 173 -124 68 -65 69 -99 2 -61 -51 29 -63 21
-142 -92 -41 -60 -84 -124 -95 -143 -34 -56 -64 -159 -71 -240 -6 -60 -10 -75
-25 -78 -13 -3 -24 11 -41 51 -26 58 -38 67 -91 67 -46 0 -59 -20 -50 -77 13
-91 111 -147 160 -93 24 26 43 25 47 -1 6 -42 59 -66 418 -186 92 -30 336 -83
386 -83 53 0 172 61 239 122 45 40 110 115 182 208 8 9 85 0 139 -17 47 -14
56 -21 61 -45 4 -19 12 -28 24 -28 25 0 24 -13 -6 -60 -14 -22 -25 -42 -25
-46 0 -3 -29 -49 -64 -102 -70 -106 -181 -224 -263 -278 -29 -19 -53 -39 -53
-44 0 -13 42 -40 62 -40 18 0 22 3 139 113 76 71 173 206 218 300 13 27 35 62
48 78 20 24 23 32 13 44 -17 20 -5 45 21 45 44 0 129 -32 147 -55 13 -16 26
-22 39 -19 13 4 37 -6 67 -27 36 -26 46 -39 46 -61 0 -66 -105 -324 -141 -346
-16 -10 -23 -10 -36 3 -9 10 -25 14 -37 11 -74 -17 -97 -18 -122 -1 -24 16
-27 15 -75 -16 -47 -30 -69 -60 -69 -95 0 -22 21 -17 73 16 75 47 102 38 47
-15 -56 -54 -29 -75 58 -45 31 10 75 28 97 40 21 11 44 20 50 20 5 0 36 -16
68 -35 32 -19 67 -35 77 -35 30 0 50 37 44 84 -6 45 38 307 61 362 9 22 23 36
40 40 36 9 109 -21 140 -58 24 -28 27 -29 44 -14 26 23 75 20 107 -7 34 -30
42 -101 21 -202 -20 -97 -113 -454 -128 -490 -56 -137 -81 -158 -168 -144 -53
8 -184 48 -253 76 -27 12 -38 22 -38 38 0 33 20 45 78 45 50 0 57 -3 87 -36
27 -29 43 -37 79 -41 115 -13 131 11 212 306 27 102 24 114 -25 109 -25 -3
-44 -46 -86 -192 -18 -62 -26 -70 -72 -68 -32 1 -45 9 -80 47 -23 25 -65 56
-95 70 -81 38 -129 34 -249 -20 -125 -57 -142 -60 -215 -45 -136 28 -251 81
-424 194 -47 31 -88 56 -92 56 -5 0 -36 13 -71 30 -67 31 -144 86 -211 148
-142 131 -279 197 -461 221 -210 28 -245 39 -290 93 -79 94 -90 272 -30 525
26 108 67 243 85 275 13 23 22 111 13 123 -16 21 -110 92 -178 135 l-69 45
-103 -2 c-57 -1 -103 1 -103 5 1 18 148 112 176 112 14 0 58 -22 99 -50z m729
4 c3 -8 2 -12 -4 -9 -6 3 -10 10 -10 16 0 14 7 11 14 -7z m8226 -93 c0 -12
-88 -101 -100 -101 -6 0 -14 8 -17 17 -5 12 6 28 37 55 39 35 80 50 80 29z
m-8170 -122 c0 -5 -16 -9 -35 -9 -19 0 -35 4 -35 8 0 4 16 8 35 9 19 1 35 -3
35 -8z m8014 -101 c93 -156 124 -237 181 -463 30 -121 55 -234 55 -252 0 -50
-43 -135 -86 -171 -42 -35 -117 -62 -170 -62 -39 0 -211 -56 -309 -100 -39
-17 -89 -40 -112 -51 -24 -10 -46 -19 -49 -19 -3 0 -39 -15 -79 -34 -52 -24
-99 -58 -160 -115 -85 -78 -185 -139 -260 -156 -36 -9 -161 -47 -265 -82 -41
-13 -151 -62 -243 -108 -92 -46 -174 -82 -182 -79 -8 4 -32 22 -53 43 -21 20
-82 71 -136 114 -53 43 -101 89 -106 103 -6 14 -10 47 -10 74 0 27 -4 51 -9
55 -13 7 -81 -53 -92 -82 -7 -19 -13 -22 -41 -16 -18 3 -37 10 -42 14 -18 17
-46 10 -46 -11 0 -24 -22 -26 -40 -5 -17 21 -69 19 -77 -2 -4 -9 1 -57 11
-107 9 -50 18 -102 21 -116 2 -14 13 -50 24 -80 11 -30 20 -64 21 -75 0 -28
19 -45 48 -45 13 0 79 20 148 45 131 48 168 54 177 30 10 -23 -24 -50 -98 -79
-38 -15 -101 -43 -140 -62 -38 -19 -77 -34 -87 -34 -20 0 -64 51 -84 99 -97
223 -111 271 -124 431 -5 63 -14 153 -19 200 -9 88 -3 120 25 120 17 0 17 1
39 -110 33 -171 41 -184 85 -140 16 16 20 34 21 93 0 80 21 214 35 226 5 4 29
13 54 20 25 7 55 18 68 24 33 15 43 -1 53 -80 19 -151 25 -189 37 -210 24 -43
35 -27 28 40 -4 34 -9 110 -13 169 l-6 107 29 11 c32 12 70 28 96 41 10 5 28
9 40 9 13 0 36 7 52 15 42 22 66 11 36 -15 -13 -11 -27 -20 -33 -20 -14 0 5
-82 49 -215 40 -121 44 -130 139 -299 18 -32 23 -52 17 -58 -18 -18 -46 -3
-84 47 -75 99 -144 265 -181 435 -11 52 -17 66 -34 68 -11 2 -28 -5 -38 -14
-15 -16 -17 -31 -11 -119 10 -149 27 -296 38 -328 6 -15 25 -37 42 -49 17 -12
36 -26 41 -32 24 -27 130 -96 148 -96 22 0 163 65 171 79 3 4 27 14 53 21 75
21 83 45 26 77 -49 28 -91 73 -140 149 -42 65 -53 92 -103 249 -18 55 -38 107
-46 116 -19 21 -7 30 66 53 69 22 215 79 298 117 35 16 68 29 73 29 15 0 10
-16 -8 -31 -18 -15 -33 -22 -115 -59 -35 -15 -48 -26 -48 -41 0 -36 142 -162
302 -268 157 -105 200 -122 213 -81 5 17 15 20 63 20 132 0 223 26 517 147
204 84 225 100 225 172 0 44 4 56 27 75 l27 23 -26 17 c-15 10 -50 66 -91 149
-108 215 -204 301 -298 268 -65 -22 -52 -4 34 52 40 25 82 55 93 64 11 10 49
43 84 73 36 30 74 63 85 73 11 10 34 26 50 34 17 9 34 22 38 29 4 8 18 14 31
14 17 0 31 -15 60 -62z m-7484 28 c0 -3 -4 -8 -10 -11 -5 -3 -10 -1 -10 4 0 6
5 11 10 11 6 0 10 -2 10 -4z m-470 -21 c0 -8 -4 -15 -10 -15 -5 0 -7 7 -4 15
4 8 8 15 10 15 2 0 4 -7 4 -15z m8257 -85 c43 -38 83 -75 88 -82 6 -8 42 -48
82 -91 39 -43 83 -98 97 -124 25 -43 49 -149 39 -165 -9 -15 -33 -7 -44 15
-14 25 -229 312 -296 395 -65 80 -83 122 -52 122 5 0 43 -31 86 -70z m-7517
-8 c0 -4 -6 -14 -12 -21 -7 -8 -8 -11 -3 -8 6 3 15 -6 22 -19 14 -29 0 -31
-27 -4 -17 17 -18 23 -8 40 13 20 28 27 28 12z m62 -84 c9 -7 19 -26 22 -42 7
-27 6 -28 -21 -21 -15 3 -29 11 -31 16 -2 5 -18 9 -35 9 -30 1 -31 2 -14 15
11 7 25 11 33 8 8 -3 14 1 14 11 0 19 11 20 32 4z m-1769 -60 c-24 -48 -52
-88 -106 -151 -81 -93 -155 -132 -172 -89 -5 13 17 40 97 116 100 96 173 156
189 156 4 0 0 -15 -8 -32z m954 -101 c33 -27 109 -75 173 -110 116 -62 280
-160 291 -173 9 -11 8 -18 -6 -34 -29 -31 -121 -28 -158 5 -15 14 -27 34 -27
44 0 21 -35 55 -48 47 -5 -3 -42 10 -81 29 -84 41 -96 42 -111 15 -6 -11 -15
-18 -20 -15 -13 8 -71 195 -64 206 8 14 20 11 51 -14z m7373 -40 c0 -60 -36
-179 -99 -329 -23 -54 -41 -113 -41 -131 0 -43 -18 -67 -54 -70 -23 -2 -32 4
-46 28 -10 19 -26 31 -42 33 -38 5 -25 37 23 56 44 18 82 79 77 124 -3 27 -4
27 -78 26 -70 -2 -189 -22 -269 -46 -33 -10 -111 5 -111 22 0 4 19 15 43 26
23 10 74 40 112 65 39 25 75 48 80 50 6 2 64 36 130 75 187 111 208 122 243
123 l32 1 0 -53z m-7206 -327 c73 -106 99 -172 87 -217 -10 -38 -53 -44 -82
-11 -17 20 -89 161 -89 175 0 3 -18 41 -41 86 -28 55 -39 88 -34 104 l6 24 43
-31 c26 -19 70 -71 110 -130z m5690 89 c-3 -5 -10 -7 -15 -3 -5 3 -7 10 -3 15
3 5 10 7 15 3 5 -3 7 -10 3 -15z m-2327 -411 c-3 -8 -6 -5 -6 6 -1 11 2 17 5
13 3 -3 4 -12 1 -19z m750 6 c-3 -3 -12 -4 -19 -1 -8 3 -5 6 6 6 11 1 17 -2
13 -5z m-1842 -146 c529 -124 881 -163 1450 -162 405 0 649 24 959 93 191 42
219 41 265 -7 73 -78 118 -302 91 -462 -14 -85 -79 -232 -131 -293 -104 -125
-242 -141 -1184 -139 -649 2 -878 11 -1140 47 -387 52 -424 65 -528 195 -114
142 -144 229 -134 390 6 94 41 228 73 277 8 12 14 36 14 52 0 60 41 61 265 9z
m3427 -354 c-2 -16 -14 -49 -26 -74 -13 -25 -28 -57 -34 -72 -11 -27 -35 -36
-58 -20 -6 4 -17 31 -24 60 -16 68 2 102 54 102 20 0 40 8 51 20 24 27 41 20
37 -16z"/>
<path d="M20109 7642 c-25 -30 -49 -79 -42 -86 26 -25 73 15 73 62 0 38 -13
47 -31 24z"/>
<path d="M19556 7365 c-14 -33 -13 -65 3 -65 17 0 149 -85 180 -116 39 -39 46
-41 61 -15 19 36 11 65 -28 94 -60 45 -192 137 -197 137 -3 0 -11 -16 -19 -35z"/>
<path d="M19544 7203 c4 -21 9 -75 13 -120 8 -107 22 -124 81 -94 39 20 82 67
95 102 3 9 -1 26 -9 37 -21 31 -142 112 -166 112 -18 0 -20 -4 -14 -37z"/>
<path d="M9923 6803 c-36 -13 -178 -383 -190 -495 -6 -56 -5 -57 28 -77 19
-12 42 -21 52 -21 17 0 57 53 57 77 0 6 27 69 61 140 80 170 112 264 100 296
-11 28 -90 86 -108 80z"/>
<path d="M11203 5941 c-12 -10 -33 -35 -47 -56 -44 -64 -202 -189 -281 -222
-81 -34 -116 -36 -211 -13 -47 11 -90 20 -94 20 -5 0 12 -19 38 -43 99 -90
137 -109 239 -122 46 -6 59 -3 115 27 101 54 271 226 347 351 34 55 16 59 -31
7 -131 -146 -266 -264 -295 -258 -12 2 7 23 64 70 45 37 94 84 110 105 15 20
48 56 71 80 24 23 42 48 40 55 -7 20 -41 20 -65 -1z"/>
<path d="M11498 5909 c-10 -5 -18 -17 -18 -26 0 -26 -87 -181 -145 -259 -55
-73 -160 -185 -205 -217 -33 -23 -17 -51 32 -55 33 -3 41 3 124 93 89 96 160
201 235 347 44 88 47 103 20 118 -23 12 -22 12 -43 -1z"/>
<path d="M11597 5778 c-25 -51 -68 -124 -96 -163 -28 -38 -51 -74 -51 -78 0
-15 141 13 163 31 25 21 90 174 95 221 4 49 -4 63 -45 75 -19 6 -26 -3 -66
-86z"/>
<path d="M11939 5708 c-16 -30 -50 -228 -43 -250 7 -23 50 -34 69 -18 30 25
65 207 51 264 -9 35 -59 37 -77 4z"/>
<path d="M12109 5688 c-18 -33 -31 -198 -18 -215 15 -17 43 -17 58 1 18 22 37
171 25 203 -12 37 -48 43 -65 11z"/>
<path d="M11887 5373 c-3 -5 -8 -33 -12 -64 -6 -45 -4 -58 10 -69 11 -10 21
-11 32 -4 17 10 55 122 47 136 -6 10 -71 11 -77 1z"/>
<path d="M18285 6767 c-12 -12 -42 -54 -69 -94 -40 -59 -47 -76 -42 -100 4
-16 44 -92 89 -169 45 -77 91 -156 102 -178 33 -62 62 -89 91 -82 13 3 36 9
52 12 58 14 60 29 26 164 -20 77 -28 98 -101 270 -28 63 -58 134 -68 158 -21
48 -47 55 -80 19z"/>
<path d="M18448 6102 c-1 -4 -24 -20 -50 -35 -44 -25 -48 -31 -48 -66 0 -28 7
-44 28 -63 38 -36 65 -42 106 -23 43 20 63 51 72 105 6 34 3 45 -16 65 -23 24
-84 36 -92 17z"/>
<path d="M16853 5933 c-19 -2 -37 -12 -43 -23 -8 -15 -5 -20 20 -28 16 -6 98
-80 182 -164 122 -122 167 -160 221 -188 37 -19 67 -38 67 -42 0 -18 -58 -5
-129 29 -66 31 -94 54 -213 175 -75 76 -139 134 -142 129 -4 -5 1 -16 9 -24 8
-9 15 -25 15 -36 0 -74 178 -369 236 -391 19 -8 44 -4 107 16 90 29 174 59
225 80 18 8 38 14 45 14 23 0 70 57 63 76 -5 13 -9 15 -18 6 -22 -22 -81 -12
-162 27 -97 47 -209 136 -329 260 -50 52 -95 90 -105 89 -9 0 -32 -3 -49 -5z"/>
<path d="M16271 5781 c-28 -18 -42 -226 -20 -290 15 -44 53 -52 86 -18 l26 25
-16 84 c-10 46 -17 95 -17 109 0 30 -26 99 -38 99 -4 0 -13 -4 -21 -9z"/>
<path d="M12748 5573 c-27 -7 -74 -93 -87 -158 -7 -33 -11 -98 -9 -145 9 -180
116 -370 242 -428 53 -24 207 -51 504 -87 287 -35 1271 -44 1642 -15 309 24
354 35 421 107 70 75 99 155 124 334 12 92 12 113 -1 168 -14 61 -42 113 -74
138 -27 22 -109 17 -320 -22 -109 -20 -146 -25 -344 -44 -167 -17 -196 -25
-196 -51 1 -19 40 -42 140 -84 63 -27 135 -59 160 -71 48 -25 98 -71 87 -81
-4 -4 -60 -2 -125 5 -65 6 -126 9 -135 5 -25 -9 -31 -48 -12 -83 9 -18 49 -54
92 -84 102 -70 203 -156 203 -173 0 -18 -15 -18 -76 0 -27 8 -78 22 -114 32
-131 35 -229 91 -490 282 -134 99 -207 141 -241 142 -8 0 -49 -23 -90 -51
-503 -343 -591 -387 -763 -376 -94 6 -126 13 -126 28 0 5 27 26 61 46 124 76
235 153 258 177 33 36 18 50 -77 71 -120 27 -157 39 -157 53 0 7 42 31 92 52
187 78 224 109 171 144 -20 13 -163 54 -268 76 -19 5 -89 22 -155 39 -109 29
-285 63 -310 60 -5 -1 -18 -3 -27 -6z"/>
<path d="M10991 9820 c-250 -53 -421 -209 -502 -455 -32 -96 -33 -249 -2 -316
37 -82 131 -130 149 -76 4 12 6 61 5 109 -3 107 13 164 70 239 106 143 270
219 473 219 l99 0 -44 -48 c-24 -27 -68 -84 -97 -128 -118 -174 -411 -601
-430 -625 l-21 -26 -78 14 c-48 9 -106 12 -150 8 -308 -25 -484 -271 -429
-595 53 -306 288 -543 633 -636 54 -15 102 -19 233 -18 150 0 173 3 254 27
440 135 788 550 897 1072 25 115 29 327 10 435 -69 384 -324 663 -708 776 -98
28 -283 41 -362 24z m477 -340 c162 -76 301 -213 362 -355 50 -116 62 -303 29
-442 -92 -390 -393 -750 -735 -879 -155 -58 -332 -73 -469 -39 -193 48 -366
188 -426 344 -65 169 -7 346 123 382 45 12 154 7 169 -8 5 -5 -31 -67 -86
-147 -53 -77 -102 -151 -110 -167 -30 -57 -10 -152 38 -184 48 -31 85 2 286
263 l102 132 47 -32 c51 -35 205 -185 238 -232 25 -37 61 -31 89 16 16 27 20
51 20 123 -1 137 -35 201 -162 298 -29 21 -53 44 -53 49 0 5 21 37 48 70 46
59 91 117 142 183 14 18 79 101 145 185 197 249 197 250 190 290 -4 19 -22 66
-41 103 -19 37 -34 70 -34 73 0 10 29 2 88 -26z"/>
<path d="M18397 9748 c-24 -19 -36 -61 -43 -153 -8 -104 -13 -112 -49 -94 -22
11 -37 34 -64 100 -50 121 -77 145 -136 123 -26 -10 -54 -77 -61 -146 -9 -93
13 -165 72 -226 59 -60 58 -60 82 -172 53 -247 52 -500 -3 -500 -32 0 -93 88
-136 197 -16 43 -34 88 -39 101 -8 19 -17 22 -61 22 l-51 0 8 28 c5 15 9 56 9
92 0 52 -5 71 -23 98 -68 95 -215 83 -300 -25 -75 -96 -102 -183 -109 -348 -4
-114 -2 -145 21 -255 54 -258 23 -560 -65 -635 -17 -14 -41 -25 -54 -25 -56 0
-146 142 -209 331 -55 163 -79 339 -47 339 12 0 66 -106 91 -180 25 -72 50
-101 80 -93 25 7 97 85 110 119 19 49 5 148 -30 214 -19 35 -81 100 -111 116
-31 16 -96 18 -131 5 -39 -15 -108 -93 -138 -156 -37 -80 -50 -146 -51 -268 0
-108 -17 -220 -40 -276 l-15 -35 -18 50 c-62 164 -178 264 -291 251 -43 -4
-45 -4 -30 12 17 20 20 63 5 92 -7 13 -21 19 -45 19 -74 0 -211 -170 -256
-320 -29 -95 -32 -240 -6 -351 16 -71 17 -84 3 -175 -16 -109 -50 -229 -68
-240 -19 -12 -35 23 -56 129 -26 126 -40 230 -51 369 -4 60 -13 114 -20 122
-22 26 -113 50 -146 39 -57 -19 -68 -48 -67 -185 2 -265 67 -534 157 -644 68
-83 162 -91 240 -22 43 37 97 148 120 245 l18 72 46 -40 c96 -85 197 -110 283
-69 121 57 197 190 214 380 6 63 12 80 35 108 16 18 36 46 44 62 9 17 18 30
20 30 3 0 16 -23 31 -52 33 -65 120 -153 177 -178 146 -65 283 -7 362 153 36
73 65 183 65 249 0 67 7 72 55 33 96 -79 184 -80 250 -3 45 53 65 121 65 220
0 71 9 94 25 68 11 -17 114 -42 146 -35 39 9 95 58 118 104 53 103 59 326 17
570 -9 52 -15 96 -12 98 2 3 13 0 23 -5 13 -7 29 -46 51 -124 53 -184 119
-298 199 -345 101 -59 194 12 224 172 13 73 -1 167 -39 243 -32 66 -143 173
-243 234 l-70 43 6 144 c6 139 5 145 -16 167 -25 27 -47 30 -72 12z m223 -468
c0 -5 -2 -10 -4 -10 -3 0 -8 5 -11 10 -3 6 -1 10 4 10 6 0 11 -4 11 -10z m41
-37 c13 -16 12 -17 -3 -4 -10 7 -18 15 -18 17 0 8 8 3 21 -13z m-932 -214 c13
-24 35 -62 49 -84 55 -83 151 -510 129 -568 -11 -29 -24 -19 -71 55 -79 123
-135 297 -155 478 -11 101 -6 173 13 167 6 -2 22 -23 35 -48z m885 -41 c37
-56 55 -108 38 -108 -10 0 -82 130 -82 149 0 20 10 11 44 -41z m81 -168 c-3
-5 -14 -10 -23 -10 -15 0 -15 2 -2 10 20 13 33 13 25 0z m-2059 -701 c14 -22
29 -52 35 -66 8 -22 7 -24 -4 -14 -21 17 -64 83 -72 110 -10 33 10 19 41 -30z
m-66 -242 c31 -28 75 -55 111 -68 l59 -22 0 -62 c0 -132 -45 -208 -103 -171
-54 36 -142 255 -153 380 l-5 61 20 -36 c11 -20 43 -57 71 -82z"/>
<path d="M21005 9371 c-3 -5 -1 -12 5 -16 5 -3 10 1 10 9 0 18 -6 21 -15 7z"/>
<path d="M20668 9223 c6 -2 18 -2 25 0 6 3 1 5 -13 5 -14 0 -19 -2 -12 -5z"/>
<path d="M15891 8558 c-71 -38 -83 -124 -36 -254 30 -83 79 -144 115 -144 52
0 147 143 170 255 13 64 3 95 -43 129 -35 26 -167 35 -206 14z"/>
<path d="M12201 8155 c-250 -70 -482 -395 -481 -671 1 -153 71 -244 188 -244
59 0 93 14 169 71 l53 39 5 -27 c28 -129 95 -195 197 -195 107 1 264 112 400
282 50 63 75 87 82 80 8 -8 5 -21 -8 -43 -113 -189 -141 -252 -157 -349 -17
-104 14 -184 84 -220 49 -24 114 -20 175 11 54 27 127 111 147 169 31 86 31
276 -1 428 -6 30 -3 34 77 90 45 33 93 69 106 81 48 46 14 132 -48 119 -15 -3
-62 -26 -103 -51 -41 -25 -77 -45 -80 -45 -2 0 -9 15 -15 33 -10 29 -7 42 29
122 48 108 51 145 14 174 -49 39 -123 22 -192 -43 -56 -52 -74 -98 -76 -195
l-1 -86 -60 -80 c-118 -157 -233 -262 -307 -280 -23 -6 -29 -3 -37 18 -14 35
10 130 60 238 46 97 46 117 4 167 l-24 29 38 12 c43 12 97 67 107 107 4 14 4
48 2 75 -14 140 -183 230 -347 184z m95 -241 c-14 -41 -26 -81 -26 -90 0 -8
-11 -30 -25 -48 -14 -18 -25 -36 -25 -40 0 -12 -93 -149 -146 -216 -46 -57
-103 -110 -119 -110 -13 0 -3 84 20 149 62 182 195 374 315 455 24 16 25 16
28 -4 2 -12 -8 -55 -22 -96z m731 -526 c-3 -8 -6 -5 -6 6 -1 11 2 17 5 13 3
-3 4 -12 1 -19z m10 -95 c-3 -10 -5 -2 -5 17 0 19 2 27 5 18 2 -10 2 -26 0
-35z m-207 -165 c-6 -29 -19 -64 -30 -78 -19 -24 -20 -24 -20 -4 0 20 13 62
40 129 18 43 24 15 10 -47z m-65 -156 c-3 -3 -11 0 -18 7 -9 10 -8 11 6 5 10
-3 15 -9 12 -12z"/>
<path d="M8625 7410 c-3 -5 -13 -10 -22 -10 -27 0 -123 -52 -134 -72 -8 -15
-5 -26 17 -55 24 -31 30 -34 58 -28 17 4 47 10 67 14 20 3 54 22 79 43 l43 38
-12 40 c-11 38 -14 40 -51 40 -21 0 -42 -4 -45 -10z"/>
</g>
</svg>
